<svg width="178" height="56" viewBox="0 0 178 56" fill="none" xmlns="http://www.w3.org/2000/svg">
<g clip-path="url(#clip0_1_78)">
<mask id="mask0_1_78" style="mask-type:luminance" maskUnits="userSpaceOnUse" x="0" y="0" width="177" height="56">
<path d="M176.327 0.340088H0.0118408V55.8101H176.327V0.340088Z" fill="white"/>
</mask>
<g mask="url(#mask0_1_78)">
<path d="M0.0098877 37.2829C0.0098877 27.1275 7.15862 20.4417 15.4652 20.4417C20.1975 20.4417 23.8348 22.6956 25.559 25.0002L26.3268 21.2014H33.0979V53.3391H26.5154L25.559 49.4137C24.0237 51.6549 20.4492 54.0988 15.2764 54.0988C6.71812 54.137 0.0098877 47.0585 0.0098877 37.2829ZM26.0751 37.2829C26.0751 31.1796 22.1734 27.0641 16.8748 27.0641C11.5007 27.0641 7.61169 31.3062 7.61169 37.2829C7.61169 43.2598 11.5133 47.5016 16.8748 47.5016C22.1734 47.5143 26.0751 43.3989 26.0751 37.2829Z" fill="#4B27DC"/>
<path d="M39.0026 3.76404H46.4786V25.4677C48.1399 22.6313 51.7143 20.4534 56.3206 20.4534C63.6708 20.4534 68.0758 25.2144 68.0758 33.6225V53.3636H60.5999V35.1673C60.5999 30.0262 58.1079 27.1898 53.9546 27.1898C49.927 27.1898 46.4786 30.7228 46.4786 38.2443V53.3509H39.0026V3.76404Z" fill="#4B27DC"/>
<path d="M87.7324 54.1355C77.8901 54.1355 71.6981 47.0698 71.6981 37.3575C71.6981 27.4554 78.1545 20.4529 87.6693 20.4529C98.0274 20.4529 103.389 27.8478 103.389 36.3951C103.389 37.2941 103.326 38.4465 103.137 39.2948H79.0481C79.8159 45.0817 83.4531 47.5256 88.1854 47.5256C92.2127 47.5256 94.6418 45.5375 96.1143 42.7011L102.307 45.6008C99.9406 50.6532 95.0195 54.1355 87.7324 54.1355ZM79.174 33.9512H95.8502C95.2712 29.2533 91.9485 26.683 87.6693 26.683C83.7048 26.683 80.1304 28.7975 79.174 33.9512Z" fill="#4B27DC"/>
<path d="M106.409 37.2829C106.409 27.1275 113.558 20.4417 121.865 20.4417C126.597 20.4417 130.234 22.6956 131.959 25.0002L132.726 21.2014H139.497V53.3391H132.915L131.959 49.4137C130.423 51.6549 126.849 54.0988 121.676 54.0988C113.117 54.137 106.409 47.0585 106.409 37.2829ZM132.474 37.2829C132.474 31.1796 128.573 27.0641 123.274 27.0641C117.9 27.0641 114.011 31.3062 114.011 37.2829C114.011 43.2598 117.913 47.5016 123.274 47.5016C128.573 47.5143 132.474 43.3989 132.474 37.2829Z" fill="#4B27DC"/>
<path d="M158.616 54.136C149.995 54.136 143.224 47.26 143.224 37.2946C143.224 26.9492 150.435 20.4534 158.88 20.4534C163.739 20.4534 167.25 22.8339 168.848 25.2144V3.76404H176.324V53.3636H169.931L169.1 48.9949C167.376 51.6794 163.411 54.136 158.616 54.136ZM150.762 37.2819C150.762 43.1955 154.727 47.4373 160.089 47.4373C165.387 47.4373 169.289 43.3221 169.289 37.2819C169.289 31.2419 165.387 27.1265 160.089 27.1265C154.727 27.1265 150.762 31.3813 150.762 37.2819Z" fill="#4B27DC"/>
</g>
</g>
<defs>
<clipPath id="clip0_1_78">
<rect width="177.966" height="55.47" fill="white" transform="translate(0.0118408 0.340088)"/>
</clipPath>
</defs>
</svg>
