<svg width="480" height="511" viewBox="0 0 480 511" fill="none" xmlns="http://www.w3.org/2000/svg">
<g clip-path="url(#clip0_1_647)">
<g opacity="0.4">
<path d="M480 270.725C480 138.177 372.548 30.7255 240 30.7255C107.452 30.7255 0 138.177 0 270.725C0 403.274 107.452 510.725 240 510.725C372.548 510.725 480 403.274 480 270.725Z" fill="white"/>
</g>
<mask id="mask0_1_647" style="mask-type:luminance" maskUnits="userSpaceOnUse" x="40" y="70" width="400" height="401">
<path d="M440 270.861C440 160.404 350.457 70.8612 240 70.8612C129.543 70.8612 40 160.404 40 270.861C40 381.318 129.543 470.861 240 470.861C350.457 470.861 440 381.318 440 270.861Z" fill="white"/>
</mask>
<g mask="url(#mask0_1_647)">
<path d="M440 270.861C440 160.404 350.457 70.8612 240 70.8612C129.543 70.8612 40 160.404 40 270.861C40 381.318 129.543 470.861 240 470.861C350.457 470.861 440 381.318 440 270.861Z" fill="white"/>
<g filter="url(#filter0_f_1_647)">
<path d="M330 30.0409H151C137.745 30.0409 127 40.7861 127 54.0409V487.041C127 500.296 137.745 511.041 151 511.041H330C343.255 511.041 354 500.296 354 487.041V54.0409C354 40.7861 343.255 30.0409 330 30.0409Z" fill="black" fill-opacity="0.12"/>
</g>
<mask id="mask1_1_647" style="mask-type:luminance" maskUnits="userSpaceOnUse" x="128" y="30" width="227" height="492">
<path d="M328.398 30.3417H154.243C139.754 30.3417 128.008 42.0876 128.008 56.577V494.825C128.008 509.315 139.754 521.061 154.243 521.061H328.398C342.887 521.061 354.633 509.315 354.633 494.825V56.577C354.633 42.0876 342.887 30.3417 328.398 30.3417Z" fill="white"/>
</mask>
<g mask="url(#mask1_1_647)">
<path d="M328.398 30.3417H154.243C139.754 30.3417 128.008 42.0876 128.008 56.577V494.825C128.008 509.315 139.754 521.061 154.243 521.061H328.398C342.887 521.061 354.633 509.315 354.633 494.825V56.577C354.633 42.0876 342.887 30.3417 328.398 30.3417Z" fill="white"/>
<mask id="mask2_1_647" style="mask-type:luminance" maskUnits="userSpaceOnUse" x="128" y="30" width="227" height="491">
<path d="M329.016 30.4168H153.718C139.58 30.4168 128.118 41.8783 128.118 56.0168V495.261C128.118 509.399 139.58 520.861 153.718 520.861H329.016C343.155 520.861 354.616 509.399 354.616 495.261V56.0168C354.616 41.8783 343.155 30.4168 329.016 30.4168Z" fill="white"/>
</mask>
<g mask="url(#mask2_1_647)">
<path d="M329.016 30.4168H153.718C139.58 30.4168 128.118 41.8783 128.118 56.0168V495.261C128.118 509.399 139.58 520.861 153.718 520.861H329.016C343.155 520.861 354.616 509.399 354.616 495.261V56.0168C354.616 41.8783 343.155 30.4168 329.016 30.4168Z" fill="white"/>
<path d="M241.066 552.267C368.159 552.267 471.188 449.238 471.188 322.145C471.188 195.052 368.159 92.023 241.066 92.023C113.973 92.023 10.9441 195.052 10.9441 322.145C10.9441 449.238 113.973 552.267 241.066 552.267Z" fill="#F1F4FF"/>
<path d="M149.257 74.5059H143.821M152.881 68.466H147.445" stroke="#A2A2A2" stroke-width="1.20799" stroke-linecap="round" stroke-linejoin="round"/>
<path d="M151.07 76.3189C152.071 76.3189 152.882 75.5076 152.882 74.5069C152.882 73.5061 152.071 72.6949 151.07 72.6949C150.069 72.6949 149.258 73.5061 149.258 74.5069C149.258 75.5076 150.069 76.3189 151.07 76.3189Z" stroke="#A2A2A2" stroke-width="1.20799" stroke-linecap="round" stroke-linejoin="round"/>
<path d="M145.029 70.2782C146.03 70.2782 146.841 69.467 146.841 68.4662C146.841 67.4655 146.03 66.6542 145.029 66.6542C144.028 66.6542 143.217 67.4655 143.217 68.4662C143.217 69.467 144.028 70.2782 145.029 70.2782Z" stroke="#A2A2A2" stroke-width="1.20799" stroke-linecap="round" stroke-linejoin="round"/>
<path d="M174.108 73.0394V76.9223H171.001V69.9332L175.661 66.0504L180.32 69.9332V76.9223H177.214V73.0394H174.108Z" stroke="#A2A2A2" stroke-width="1.20799" stroke-linecap="round" stroke-linejoin="round"/>
<path d="M306.946 77.1687C310.449 77.1687 313.288 74.3294 313.288 70.8268C313.288 67.3242 310.449 64.4849 306.946 64.4849C303.444 64.4849 300.604 67.3242 300.604 70.8268C300.604 74.3294 303.444 77.1687 306.946 77.1687Z" fill="#6442EF"/>
<path d="M308.493 71.6442H306.53C306.638 71.2577 307.115 71.0161 307.502 70.7262C308.13 70.2732 308.45 69.9047 308.45 69.2222C308.45 68.3706 307.822 67.9357 307.103 67.9357C306.288 67.9357 305.654 68.4914 305.654 69.3188H306.324C306.33 68.8658 306.668 68.588 307.097 68.588C307.52 68.588 307.78 68.8598 307.78 69.2403C307.78 69.6752 307.502 69.9168 307.061 70.2369C306.433 70.702 305.654 71.1127 305.654 72.0549V72.2965H308.493V71.6442Z" fill="white"/>
<path d="M319.323 74.4848H321.166C322.951 74.4848 324.312 73.1826 324.312 71.483C324.312 69.7833 322.951 68.4811 321.166 68.4811H319.323V74.4848ZM320.312 73.5631V69.4028H321.166C322.452 69.4028 323.306 70.3076 323.306 71.483C323.306 72.6584 322.452 73.5631 321.166 73.5631H320.312ZM329.417 72.3709C329.417 71.1447 328.453 70.1723 327.202 70.1723C325.95 70.1723 324.986 71.1447 324.986 72.3709C324.986 73.597 325.95 74.5694 327.202 74.5694C328.453 74.5694 329.417 73.597 329.417 72.3709ZM325.925 72.3709C325.925 71.6183 326.449 71.0348 327.202 71.0348C327.946 71.0348 328.47 71.6183 328.47 72.3709C328.47 73.1234 327.946 73.7069 327.202 73.7069C326.449 73.7069 325.925 73.1234 325.925 72.3709ZM330.353 74.4848H331.283V72.4047C331.283 71.4999 331.756 71.0179 332.374 71.0179C332.915 71.0179 333.253 71.4238 333.253 72.0918V74.4848H334.183V71.9396C334.183 70.8657 333.549 70.1723 332.568 70.1723C332.019 70.1723 331.537 70.4091 331.283 70.8319V70.2569H330.353V74.4848ZM335.078 72.3709C335.078 73.6562 335.999 74.5694 337.285 74.5694C338.172 74.5694 338.832 74.1889 339.212 73.5885L338.502 73.0811C338.282 73.4532 337.885 73.7238 337.293 73.7238C336.591 73.7238 336.033 73.2672 335.991 72.5738H339.314C339.322 72.4385 339.322 72.3624 339.322 72.2694C339.322 70.908 338.392 70.1723 337.285 70.1723C335.999 70.1723 335.078 71.1278 335.078 72.3709ZM337.251 70.9587C337.792 70.9587 338.282 71.2885 338.384 71.8973H336.033C336.16 71.2716 336.71 70.9587 337.251 70.9587Z" fill="#6442EF"/>
</g>
<path d="M329.016 28.8168H153.718C138.696 28.8168 126.518 40.9947 126.518 56.0168V495.261C126.518 510.283 138.696 522.461 153.718 522.461H329.016C344.038 522.461 356.216 510.283 356.216 495.261V56.0168C356.216 40.9947 344.038 28.8168 329.016 28.8168Z" stroke="#D9D9D9" stroke-width="3.2"/>
</g>
</g>
<g filter="url(#filter1_f_1_647)">
<path d="M330 30.0409H151C137.745 30.0409 127 40.7861 127 54.0409V251.041C127 264.296 137.745 275.041 151 275.041H330C343.255 275.041 354 264.296 354 251.041V54.0409C354 40.7861 343.255 30.0409 330 30.0409Z" fill="black" fill-opacity="0.12"/>
</g>
<mask id="mask3_1_647" style="mask-type:luminance" maskUnits="userSpaceOnUse" x="128" y="30" width="226" height="269">
<path d="M354 30.0409H128V298.041H354V30.0409Z" fill="white"/>
</mask>
<g mask="url(#mask3_1_647)">
<mask id="mask4_1_647" style="mask-type:luminance" maskUnits="userSpaceOnUse" x="128" y="30" width="227" height="491">
<path d="M328.598 30.0409H154.443C139.954 30.0409 128.208 41.7868 128.208 56.2762V494.525C128.208 509.014 139.954 520.76 154.443 520.76H328.598C343.087 520.76 354.833 509.014 354.833 494.525V56.2762C354.833 41.7868 343.087 30.0409 328.598 30.0409Z" fill="white"/>
</mask>
<g mask="url(#mask4_1_647)">
<path d="M328.598 30.0409H154.443C139.954 30.0409 128.208 41.7868 128.208 56.2762V494.525C128.208 509.014 139.954 520.76 154.443 520.76H328.598C343.087 520.76 354.833 509.014 354.833 494.525V56.2762C354.833 41.7868 343.087 30.0409 328.598 30.0409Z" fill="white"/>
<mask id="mask5_1_647" style="mask-type:luminance" maskUnits="userSpaceOnUse" x="128" y="30" width="227" height="491">
<path d="M329.216 30.116H153.918C139.78 30.116 128.318 41.5775 128.318 55.716V494.96C128.318 509.098 139.78 520.56 153.918 520.56H329.216C343.354 520.56 354.816 509.098 354.816 494.96V55.716C354.816 41.5775 343.354 30.116 329.216 30.116Z" fill="white"/>
</mask>
<g mask="url(#mask5_1_647)">
<path d="M329.216 30.116H153.918C139.78 30.116 128.318 41.5775 128.318 55.716V494.96C128.318 509.098 139.78 520.56 153.918 520.56H329.216C343.354 520.56 354.816 509.098 354.816 494.96V55.716C354.816 41.5775 343.354 30.116 329.216 30.116Z" fill="white"/>
<path d="M241.266 551.966C368.359 551.966 471.388 448.937 471.388 321.844C471.388 194.751 368.359 91.722 241.266 91.722C114.173 91.722 11.144 194.751 11.144 321.844C11.144 448.937 114.173 551.966 241.266 551.966Z" fill="#F1F4FF"/>
<path d="M149.457 74.2051H144.021M153.081 68.1652H147.645" stroke="#A2A2A2" stroke-width="1.20799" stroke-linecap="round" stroke-linejoin="round"/>
<path d="M151.27 76.0181C152.271 76.0181 153.082 75.2068 153.082 74.2061C153.082 73.2054 152.271 72.3941 151.27 72.3941C150.269 72.3941 149.458 73.2054 149.458 74.2061C149.458 75.2068 150.269 76.0181 151.27 76.0181Z" stroke="#A2A2A2" stroke-width="1.20799" stroke-linecap="round" stroke-linejoin="round"/>
<path d="M145.229 69.9774C146.23 69.9774 147.041 69.1662 147.041 68.1654C147.041 67.1647 146.23 66.3535 145.229 66.3535C144.228 66.3535 143.417 67.1647 143.417 68.1654C143.417 69.1662 144.228 69.9774 145.229 69.9774Z" stroke="#A2A2A2" stroke-width="1.20799" stroke-linecap="round" stroke-linejoin="round"/>
<path d="M174.308 72.7387V76.6215H171.202V69.6324L175.861 65.7496L180.52 69.6324V76.6215H177.414V72.7387H174.308Z" stroke="#A2A2A2" stroke-width="1.20799" stroke-linecap="round" stroke-linejoin="round"/>
<path d="M307.147 76.8679C310.65 76.8679 313.489 74.0286 313.489 70.526C313.489 67.0234 310.65 64.1841 307.147 64.1841C303.644 64.1841 300.805 67.0234 300.805 70.526C300.805 74.0286 303.644 76.8679 307.147 76.8679Z" fill="#6442EF"/>
<path d="M308.693 71.3434H306.73C306.838 70.9569 307.316 70.7153 307.702 70.4254C308.33 69.9724 308.65 69.6039 308.65 68.9214C308.65 68.0698 308.022 67.6349 307.304 67.6349C306.488 67.6349 305.854 68.1906 305.854 69.0181H306.524C306.53 68.5651 306.869 68.2872 307.297 68.2872C307.72 68.2872 307.98 68.559 307.98 68.9395C307.98 69.3744 307.702 69.616 307.261 69.9361C306.633 70.4012 305.854 70.8119 305.854 71.7542V71.9958H308.693V71.3434Z" fill="white"/>
<path d="M319.523 74.1841H321.367C323.151 74.1841 324.512 72.8818 324.512 71.1822C324.512 69.4826 323.151 68.1803 321.367 68.1803H319.523V74.1841ZM320.513 73.2624V69.102H321.367C322.652 69.102 323.506 70.0068 323.506 71.1822C323.506 72.3576 322.652 73.2624 321.367 73.2624H320.513ZM329.617 72.0701C329.617 70.844 328.654 69.8715 327.402 69.8715C326.151 69.8715 325.187 70.844 325.187 72.0701C325.187 73.2962 326.151 74.2686 327.402 74.2686C328.654 74.2686 329.617 73.2962 329.617 72.0701ZM326.125 72.0701C326.125 71.3175 326.649 70.734 327.402 70.734C328.146 70.734 328.67 71.3175 328.67 72.0701C328.67 72.8226 328.146 73.4061 327.402 73.4061C326.649 73.4061 326.125 72.8226 326.125 72.0701ZM330.553 74.1841H331.483V72.1039C331.483 71.1991 331.957 70.7171 332.574 70.7171C333.115 70.7171 333.453 71.123 333.453 71.791V74.1841H334.384V71.6388C334.384 70.5649 333.749 69.8715 332.768 69.8715C332.219 69.8715 331.737 70.1083 331.483 70.5311V69.9561H330.553V74.1841ZM335.278 72.0701C335.278 73.3554 336.199 74.2686 337.485 74.2686C338.373 74.2686 339.032 73.8881 339.413 73.2877L338.702 72.7804C338.483 73.1524 338.085 73.423 337.493 73.423C336.791 73.423 336.233 72.9664 336.191 72.273H339.514C339.523 72.1377 339.523 72.0616 339.523 71.9686C339.523 70.6072 338.592 69.8715 337.485 69.8715C336.199 69.8715 335.278 70.827 335.278 72.0701ZM337.451 70.6579C337.992 70.6579 338.483 70.9877 338.584 71.5965H336.233C336.36 70.9708 336.91 70.6579 337.451 70.6579Z" fill="#6442EF"/>
</g>
<path d="M329.216 28.516H153.918C138.896 28.516 126.718 40.6938 126.718 55.716V494.96C126.718 509.982 138.896 522.16 153.918 522.16H329.216C344.238 522.16 356.416 509.982 356.416 494.96V55.716C356.416 40.6938 344.238 28.516 329.216 28.516Z" stroke="#D9D9D9" stroke-width="3.2"/>
</g>
</g>
<g filter="url(#filter2_d_1_647)">
<path d="M175.14 86.7421H175.14C139.285 86.7421 110.218 115.809 110.218 151.664V151.664C110.218 187.52 139.285 216.586 175.14 216.586H175.14C210.995 216.586 240.062 187.52 240.062 151.664V151.664C240.062 115.809 210.995 86.7421 175.14 86.7421Z" fill="white"/>
<path d="M134.885 138.618H136.226V135.135H138.975V133.863H136.226V131.767H139.72V130.484H134.885V138.618ZM139.986 135.754C139.986 137.495 141.234 138.733 142.976 138.733C144.179 138.733 145.072 138.217 145.588 137.404L144.626 136.716C144.328 137.22 143.789 137.587 142.987 137.587C142.036 137.587 141.28 136.968 141.223 136.029H145.725C145.737 135.845 145.737 135.742 145.737 135.616C145.737 133.772 144.477 132.775 142.976 132.775C141.234 132.775 139.986 134.07 139.986 135.754ZM142.93 133.841C143.663 133.841 144.328 134.287 144.465 135.112H141.28C141.452 134.264 142.197 133.841 142.93 133.841ZM146.631 135.754C146.631 137.495 147.88 138.733 149.622 138.733C150.825 138.733 151.718 138.217 152.234 137.404L151.271 136.716C150.973 137.22 150.435 137.587 149.633 137.587C148.682 137.587 147.926 136.968 147.869 136.029H152.371C152.383 135.845 152.383 135.742 152.383 135.616C152.383 133.772 151.122 132.775 149.622 132.775C147.88 132.775 146.631 134.07 146.631 135.754ZM149.576 133.841C150.309 133.841 150.973 134.287 151.111 135.112H147.926C148.098 134.264 148.843 133.841 149.576 133.841ZM153.678 138.618H154.938V130.025H153.678V138.618ZM158.098 130.793C158.098 130.335 157.732 129.957 157.262 129.957C156.804 129.957 156.414 130.335 156.414 130.793C156.414 131.263 156.804 131.641 157.262 131.641C157.732 131.641 158.098 131.263 158.098 130.793ZM156.632 138.618H157.892V132.89H156.632V138.618ZM159.586 138.618H160.846V135.8C160.846 134.574 161.487 133.921 162.324 133.921C163.057 133.921 163.515 134.471 163.515 135.376V138.618H164.776V135.17C164.776 133.715 163.916 132.775 162.587 132.775C161.843 132.775 161.19 133.096 160.846 133.669V132.89H159.586V138.618ZM171.83 138.229V132.89H170.57V133.657C170.226 133.153 169.527 132.775 168.737 132.775C167.19 132.775 165.987 134.058 165.987 135.674C165.987 137.301 167.19 138.584 168.737 138.584C169.527 138.584 170.226 138.194 170.57 137.69V138.217C170.57 139.374 169.791 140.004 168.84 140.004C168.072 140.004 167.419 139.695 166.938 139.168L166.17 140.073C166.732 140.703 167.729 141.127 168.851 141.127C170.547 141.127 171.83 140.222 171.83 138.229ZM167.259 135.674C167.259 134.654 167.992 133.921 168.966 133.921C169.94 133.921 170.673 134.654 170.673 135.674C170.673 136.693 169.94 137.427 168.966 137.427C167.992 137.427 167.259 136.693 167.259 135.674ZM181.504 137.152L180.404 136.556C180.129 137.14 179.568 137.564 178.835 137.564C177.815 137.564 177.093 136.773 177.093 135.754C177.093 134.734 177.815 133.944 178.835 133.944C179.568 133.944 180.129 134.368 180.404 134.952L181.504 134.356C181.012 133.405 180.015 132.775 178.835 132.775C177.116 132.775 175.81 134.058 175.81 135.754C175.81 137.449 177.116 138.733 178.835 138.733C180.015 138.733 181.012 138.102 181.504 137.152ZM182.656 138.618H183.916V135.823C183.916 134.677 184.569 134.07 185.291 134.07C185.52 134.07 185.703 134.104 185.921 134.173V132.878C185.749 132.844 185.589 132.832 185.428 132.832C184.775 132.832 184.134 133.256 183.916 133.909V132.89H182.656V138.618ZM186.405 135.754C186.405 137.392 187.597 138.733 189.167 138.733C189.991 138.733 190.679 138.309 191 137.85V138.618H192.26V132.89H191V133.657C190.679 133.199 189.991 132.775 189.167 132.775C187.597 132.775 186.405 134.116 186.405 135.754ZM191.103 135.754C191.103 136.785 190.415 137.587 189.396 137.587C188.376 137.587 187.689 136.785 187.689 135.754C187.689 134.723 188.376 133.921 189.396 133.921C190.415 133.921 191.103 134.723 191.103 135.754ZM195.754 138.618H196.866L199.466 132.89H198.057L196.304 136.9L194.563 132.89H193.165L195.754 138.618ZM201.811 130.793C201.811 130.335 201.444 129.957 200.975 129.957C200.516 129.957 200.127 130.335 200.127 130.793C200.127 131.263 200.516 131.641 200.975 131.641C201.444 131.641 201.811 131.263 201.811 130.793ZM200.345 138.618H201.605V132.89H200.345V138.618ZM203.298 138.618H204.558V135.8C204.558 134.574 205.2 133.921 206.036 133.921C206.77 133.921 207.228 134.471 207.228 135.376V138.618H208.488V135.17C208.488 133.715 207.629 132.775 206.3 132.775C205.555 132.775 204.902 133.096 204.558 133.669V132.89H203.298V138.618ZM215.543 138.229V132.89H214.282V133.657C213.939 133.153 213.24 132.775 212.449 132.775C210.903 132.775 209.7 134.058 209.7 135.674C209.7 137.301 210.903 138.584 212.449 138.584C213.24 138.584 213.939 138.194 214.282 137.69V138.217C214.282 139.374 213.503 140.004 212.552 140.004C211.785 140.004 211.132 139.695 210.651 139.168L209.883 140.073C210.444 140.703 211.441 141.127 212.564 141.127C214.26 141.127 215.543 140.222 215.543 138.229ZM210.971 135.674C210.971 134.654 211.705 133.921 212.679 133.921C213.652 133.921 214.386 134.654 214.386 135.674C214.386 136.693 213.652 137.427 212.679 137.427C211.705 137.427 210.971 136.693 210.971 135.674Z" fill="#212121"/>
<path opacity="0.8" d="M144.845 157.71H145.522L147.037 153.255H146.226L145.148 156.507L144.034 153.255H143.446L142.332 156.507L141.254 153.255H140.452L141.967 157.71H142.644L143.749 154.502L144.845 157.71ZM147.498 155.482C147.498 156.756 148.433 157.799 149.681 157.799C150.349 157.799 150.955 157.452 151.249 157.024V157.71H152.016V153.255H151.249V153.941C150.955 153.513 150.349 153.165 149.681 153.165C148.433 153.165 147.498 154.208 147.498 155.482ZM151.312 155.482C151.312 156.382 150.697 157.095 149.797 157.095C148.897 157.095 148.273 156.382 148.273 155.482C148.273 154.582 148.897 153.869 149.797 153.869C150.697 153.869 151.312 154.582 151.312 155.482ZM153.458 157.71H154.224V155.5C154.224 154.458 154.795 153.869 155.517 153.869C156.14 153.869 156.568 154.333 156.568 155.081V157.71H157.325V154.965C157.325 153.86 156.639 153.165 155.641 153.165C155.062 153.165 154.527 153.415 154.224 153.941V153.255H153.458V157.71ZM161.068 157.648V156.961C160.926 157.015 160.712 157.051 160.525 157.051C160.043 157.051 159.785 156.863 159.785 156.293V153.958H161.068V153.255H159.785V152.016H159.019V153.255H158.074V153.958H159.019V156.391C159.019 157.318 159.607 157.755 160.382 157.755C160.658 157.755 160.881 157.71 161.068 157.648ZM162.974 151.517C162.974 151.223 162.742 150.973 162.439 150.973C162.136 150.973 161.887 151.223 161.887 151.517C161.887 151.82 162.136 152.06 162.439 152.06C162.742 152.06 162.974 151.82 162.974 151.517ZM162.047 157.71H162.813V153.255H162.047V157.71ZM164.266 157.71H165.032V155.5C165.032 154.458 165.603 153.869 166.324 153.869C166.948 153.869 167.376 154.333 167.376 155.081V157.71H168.133V154.965C168.133 153.86 167.447 153.165 166.449 153.165C165.87 153.165 165.335 153.415 165.032 153.941V153.255H164.266V157.71ZM173.666 157.452V153.255H172.899V153.941C172.597 153.495 172.008 153.165 171.349 153.165C170.11 153.165 169.166 154.163 169.166 155.429C169.166 156.703 170.11 157.701 171.349 157.701C172.008 157.701 172.597 157.362 172.899 156.917V157.425C172.899 158.494 172.169 158.966 171.411 158.966C170.725 158.966 170.208 158.672 169.852 158.218L169.317 158.753C169.7 159.252 170.449 159.661 171.411 159.661C172.686 159.661 173.666 158.94 173.666 157.452ZM169.95 155.429C169.95 154.538 170.565 153.869 171.456 153.869C172.347 153.869 172.962 154.538 172.962 155.429C172.962 156.329 172.347 156.988 171.456 156.988C170.565 156.988 169.95 156.329 169.95 155.429ZM174.574 158.69H175.296L178.735 151.383H178.014L174.574 158.69ZM179.468 157.71H180.235V155.5C180.235 154.493 180.743 153.869 181.464 153.869C182.044 153.869 182.338 154.368 182.338 155.09V157.71H183.104V155.5C183.104 154.493 183.603 153.869 184.325 153.869C184.904 153.869 185.207 154.368 185.207 155.09V157.71H185.973V154.974C185.973 153.887 185.385 153.165 184.414 153.165C183.755 153.165 183.193 153.531 182.953 154.119C182.73 153.531 182.249 153.165 181.58 153.165C180.983 153.165 180.493 153.468 180.235 153.941V153.255H179.468V157.71ZM188.279 151.517C188.279 151.223 188.048 150.973 187.745 150.973C187.442 150.973 187.192 151.223 187.192 151.517C187.192 151.82 187.442 152.06 187.745 152.06C188.048 152.06 188.279 151.82 188.279 151.517ZM187.352 157.71H188.119V153.255H187.352V157.71ZM192.467 156.462C192.467 155.785 192.022 155.384 191.256 155.153L190.766 155.001C190.275 154.85 190.133 154.627 190.133 154.359C190.133 154.03 190.498 153.825 190.872 153.825C191.3 153.825 191.603 154.048 191.799 154.333L192.369 153.941C192.075 153.442 191.559 153.165 190.899 153.165C190.044 153.165 189.375 153.62 189.367 154.386C189.367 155.01 189.75 155.473 190.48 155.687L190.926 155.83C191.505 156.008 191.701 156.204 191.701 156.525C191.701 156.908 191.354 157.122 190.926 157.122C190.436 157.122 189.955 156.872 189.794 156.418L189.17 156.765C189.438 157.46 190.124 157.799 190.917 157.799C191.808 157.799 192.467 157.318 192.467 156.462ZM196.479 156.462C196.479 155.785 196.034 155.384 195.267 155.153L194.777 155.001C194.287 154.85 194.144 154.627 194.144 154.359C194.144 154.03 194.51 153.825 194.884 153.825C195.312 153.825 195.615 154.048 195.811 154.333L196.381 153.941C196.087 153.442 195.57 153.165 194.911 153.165C194.055 153.165 193.387 153.62 193.378 154.386C193.378 155.01 193.761 155.473 194.492 155.687L194.938 155.83C195.517 156.008 195.713 156.204 195.713 156.525C195.713 156.908 195.365 157.122 194.938 157.122C194.447 157.122 193.966 156.872 193.806 156.418L193.182 156.765C193.449 157.46 194.136 157.799 194.929 157.799C195.82 157.799 196.479 157.318 196.479 156.462ZM198.521 151.517C198.521 151.223 198.29 150.973 197.987 150.973C197.684 150.973 197.434 151.223 197.434 151.517C197.434 151.82 197.684 152.06 197.987 152.06C198.29 152.06 198.521 151.82 198.521 151.517ZM197.595 157.71H198.361V153.255H197.595V157.71ZM199.814 157.71H200.58V155.5C200.58 154.458 201.15 153.869 201.872 153.869C202.496 153.869 202.924 154.333 202.924 155.081V157.71H203.681V154.965C203.681 153.86 202.995 153.165 201.997 153.165C201.418 153.165 200.883 153.415 200.58 153.941V153.255H199.814V157.71ZM209.213 157.452V153.255H208.447V153.941C208.144 153.495 207.556 153.165 206.897 153.165C205.658 153.165 204.714 154.163 204.714 155.429C204.714 156.703 205.658 157.701 206.897 157.701C207.556 157.701 208.144 157.362 208.447 156.917V157.425C208.447 158.494 207.716 158.966 206.959 158.966C206.273 158.966 205.756 158.672 205.4 158.218L204.865 158.753C205.248 159.252 205.997 159.661 206.959 159.661C208.233 159.661 209.213 158.94 209.213 157.452ZM205.498 155.429C205.498 154.538 206.113 153.869 207.004 153.869C207.895 153.869 208.51 154.538 208.51 155.429C208.51 156.329 207.895 156.988 207.004 156.988C206.113 156.988 205.498 156.329 205.498 155.429ZM138.489 170.462C138.489 169.785 138.043 169.384 137.277 169.153L136.787 169.001C136.297 168.85 136.154 168.627 136.154 168.359C136.154 168.03 136.52 167.825 136.894 167.825C137.322 167.825 137.625 168.048 137.821 168.333L138.391 167.941C138.097 167.442 137.58 167.165 136.921 167.165C136.065 167.165 135.397 167.62 135.388 168.386C135.388 169.01 135.771 169.473 136.502 169.687L136.947 169.83C137.527 170.008 137.723 170.204 137.723 170.525C137.723 170.908 137.375 171.122 136.947 171.122C136.457 171.122 135.976 170.872 135.816 170.418L135.192 170.765C135.459 171.46 136.145 171.799 136.938 171.799C137.83 171.799 138.489 171.318 138.489 170.462ZM143.909 169.482C143.909 168.199 142.919 167.165 141.583 167.165C140.237 167.165 139.248 168.199 139.248 169.482C139.248 170.765 140.237 171.799 141.583 171.799C142.919 171.799 143.909 170.765 143.909 169.482ZM140.032 169.482C140.032 168.591 140.656 167.878 141.583 167.878C142.51 167.878 143.124 168.591 143.124 169.482C143.124 170.373 142.51 171.086 141.583 171.086C140.656 171.086 140.032 170.373 140.032 169.482ZM145.009 171.71H145.775V169.5C145.775 168.493 146.283 167.869 147.005 167.869C147.584 167.869 147.878 168.368 147.878 169.09V171.71H148.644V169.5C148.644 168.493 149.143 167.869 149.865 167.869C150.444 167.869 150.747 168.368 150.747 169.09V171.71H151.513V168.974C151.513 167.887 150.925 167.165 149.954 167.165C149.295 167.165 148.733 167.531 148.493 168.119C148.27 167.531 147.789 167.165 147.12 167.165C146.523 167.165 146.033 167.468 145.775 167.941V167.255H145.009V171.71ZM152.545 169.482C152.545 170.792 153.472 171.799 154.853 171.799C155.78 171.799 156.457 171.389 156.858 170.739L156.252 170.32C155.976 170.792 155.548 171.095 154.862 171.095C153.98 171.095 153.347 170.471 153.32 169.634H156.974C156.983 169.536 156.983 169.482 156.983 169.402C156.974 167.976 156.029 167.165 154.862 167.165C153.507 167.165 152.545 168.181 152.545 169.482ZM154.835 167.843C155.512 167.843 156.092 168.279 156.198 169.01H153.374C153.516 168.27 154.167 167.843 154.835 167.843ZM160.424 171.648V170.961C160.282 171.015 160.068 171.051 159.881 171.051C159.399 171.051 159.141 170.863 159.141 170.293V167.958H160.424V167.255H159.141V166.016H158.375V167.255H157.43V167.958H158.375V170.391C158.375 171.318 158.963 171.755 159.738 171.755C160.014 171.755 160.237 171.71 160.424 171.648ZM161.403 171.71H162.169V169.5C162.169 168.458 162.74 167.869 163.461 167.869C164.085 167.869 164.513 168.333 164.513 169.081V171.71H165.27V168.965C165.27 167.86 164.584 167.165 163.586 167.165C163.007 167.165 162.472 167.415 162.169 167.941V165.027H161.403V171.71ZM167.577 165.517C167.577 165.223 167.345 164.973 167.042 164.973C166.739 164.973 166.49 165.223 166.49 165.517C166.49 165.82 166.739 166.06 167.042 166.06C167.345 166.06 167.577 165.82 167.577 165.517ZM166.65 171.71H167.417V167.255H166.65V171.71ZM168.869 171.71H169.636V169.5C169.636 168.458 170.206 167.869 170.928 167.869C171.552 167.869 171.979 168.333 171.979 169.081V171.71H172.737V168.965C172.737 167.86 172.051 167.165 171.053 167.165C170.473 167.165 169.939 167.415 169.636 167.941V167.255H168.869V171.71ZM178.269 171.452V167.255H177.503V167.941C177.2 167.495 176.612 167.165 175.952 167.165C174.714 167.165 173.769 168.163 173.769 169.429C173.769 170.703 174.714 171.701 175.952 171.701C176.612 171.701 177.2 171.362 177.503 170.917V171.425C177.503 172.494 176.772 172.966 176.015 172.966C175.329 172.966 174.812 172.672 174.455 172.218L173.921 172.753C174.304 173.252 175.052 173.661 176.015 173.661C177.289 173.661 178.269 172.94 178.269 171.452ZM174.553 169.429C174.553 168.538 175.168 167.869 176.059 167.869C176.95 167.869 177.565 168.538 177.565 169.429C177.565 170.329 176.95 170.988 176.059 170.988C175.168 170.988 174.553 170.329 174.553 169.429ZM180.666 171.514C180.737 171.398 180.79 171.264 180.79 171.113C180.79 170.756 180.496 170.445 180.131 170.445C179.766 170.445 179.472 170.756 179.472 171.113C179.472 171.38 179.623 171.603 179.837 171.71L179.24 172.984H179.748L180.666 171.514ZM183.794 169.482C183.794 170.792 184.721 171.799 186.102 171.799C187.029 171.799 187.706 171.389 188.107 170.739L187.501 170.32C187.225 170.792 186.797 171.095 186.111 171.095C185.229 171.095 184.596 170.471 184.569 169.634H188.223C188.231 169.536 188.231 169.482 188.231 169.402C188.223 167.976 187.278 167.165 186.111 167.165C184.756 167.165 183.794 168.181 183.794 169.482ZM186.084 167.843C186.761 167.843 187.34 168.279 187.447 169.01H184.623C184.765 168.27 185.416 167.843 186.084 167.843ZM189.319 171.71H190.085V169.5C190.085 168.458 190.656 167.869 191.378 167.869C192.001 167.869 192.429 168.333 192.429 169.081V171.71H193.186V168.965C193.186 167.86 192.5 167.165 191.502 167.165C190.923 167.165 190.388 167.415 190.085 167.941V167.255H189.319V171.71ZM195.861 171.71H196.502L198.561 167.255H197.705L196.182 170.623L194.658 167.255H193.802L195.861 171.71ZM200.262 165.517C200.262 165.223 200.03 164.973 199.727 164.973C199.424 164.973 199.175 165.223 199.175 165.517C199.175 165.82 199.424 166.06 199.727 166.06C200.03 166.06 200.262 165.82 200.262 165.517ZM199.335 171.71H200.101V167.255H199.335V171.71ZM205.858 169.482C205.858 168.199 204.869 167.165 203.532 167.165C202.187 167.165 201.198 168.199 201.198 169.482C201.198 170.765 202.187 171.799 203.532 171.799C204.869 171.799 205.858 170.765 205.858 169.482ZM201.982 169.482C201.982 168.591 202.606 167.878 203.532 167.878C204.459 167.878 205.074 168.591 205.074 169.482C205.074 170.373 204.459 171.086 203.532 171.086C202.606 171.086 201.982 170.373 201.982 169.482ZM206.896 169.99C206.896 171.095 207.555 171.799 208.535 171.799C209.097 171.799 209.613 171.541 209.908 171.024V171.71H210.674V167.255H209.908V169.464C209.908 170.489 209.364 171.095 208.669 171.095C208.054 171.095 207.662 170.623 207.662 169.874V167.255H206.896V169.99ZM215.014 170.462C215.014 169.785 214.569 169.384 213.802 169.153L213.312 169.001C212.822 168.85 212.68 168.627 212.68 168.359C212.68 168.03 213.045 167.825 213.419 167.825C213.847 167.825 214.15 168.048 214.346 168.333L214.916 167.941C214.622 167.442 214.105 167.165 213.446 167.165C212.591 167.165 211.922 167.62 211.913 168.386C211.913 169.01 212.297 169.473 213.027 169.687L213.473 169.83C214.052 170.008 214.248 170.204 214.248 170.525C214.248 170.908 213.901 171.122 213.473 171.122C212.983 171.122 212.502 170.872 212.341 170.418L211.717 170.765C211.985 171.46 212.671 171.799 213.464 171.799C214.355 171.799 215.014 171.318 215.014 170.462Z" fill="#212121"/>
<g filter="url(#filter3_d_1_647)">
<path d="M171.321 215.951C171.321 206.46 163.627 198.766 154.136 198.766C144.645 198.766 136.951 206.46 136.951 215.951C136.951 225.442 144.645 233.136 154.136 233.136C163.627 233.136 171.321 225.442 171.321 215.951Z" fill="#6442EF"/>
<path d="M159.122 211.469L152.121 219.107L148.938 215.635" stroke="white" stroke-width="1.27298" stroke-linecap="round" stroke-linejoin="round"/>
</g>
<g filter="url(#filter4_dd_1_647)">
<path d="M213.328 215.952C213.328 206.461 205.634 198.767 196.143 198.767C186.652 198.767 178.958 206.461 178.958 215.952C178.958 225.443 186.652 233.137 196.143 233.137C205.634 233.137 213.328 225.443 213.328 215.952Z" fill="white"/>
<path d="M197.777 213.087H192.64C191.96 213.087 191.409 213.638 191.409 214.318V219.455C191.409 220.135 191.96 220.687 192.64 220.687H197.777C198.457 220.687 199.009 220.135 199.009 219.455V214.318C199.009 213.638 198.457 213.087 197.777 213.087Z" stroke="#A2A2A2" stroke-width="1.27298"/>
<path d="M195.443 210.578H198.712C200.26 210.578 201.514 211.833 201.514 213.38V217.116" stroke="#A2A2A2" stroke-width="1.27298" stroke-linecap="round"/>
</g>
</g>
<g filter="url(#filter5_d_1_647)">
<path d="M321.351 292.529H321.351C285.495 292.529 256.429 321.596 256.429 357.451V357.451C256.429 393.306 285.495 422.373 321.351 422.373H321.351C357.206 422.373 386.273 393.306 386.273 357.451V357.451C386.273 321.596 357.206 292.529 321.351 292.529Z" fill="white"/>
<path d="M285.303 336.905H287.801C290.218 336.905 292.063 335.141 292.063 332.838C292.063 330.535 290.218 328.771 287.801 328.771H285.303V336.905ZM286.644 335.656V330.02H287.801C289.542 330.02 290.699 331.245 290.699 332.838C290.699 334.43 289.542 335.656 287.801 335.656H286.644ZM294.788 329.08C294.788 328.622 294.421 328.244 293.952 328.244C293.493 328.244 293.104 328.622 293.104 329.08C293.104 329.55 293.493 329.928 293.952 329.928C294.421 329.928 294.788 329.55 294.788 329.08ZM293.322 336.905H294.582V331.177H293.322V336.905ZM300.171 335.244C300.171 334.304 299.575 333.8 298.567 333.502L297.982 333.331C297.421 333.17 297.295 332.93 297.295 332.655C297.295 332.311 297.684 332.116 298.063 332.116C298.532 332.116 298.899 332.345 299.151 332.701L300.022 332.036C299.621 331.406 298.945 331.062 298.085 331.062C296.94 331.062 296.046 331.681 296.035 332.701C296.023 333.548 296.539 334.178 297.536 334.453L298.04 334.591C298.727 334.797 298.922 334.992 298.922 335.324C298.922 335.725 298.544 335.931 298.097 335.931C297.513 335.931 296.951 335.645 296.722 335.141L295.794 335.805C296.207 336.619 297.077 337.02 298.097 337.02C299.277 337.02 300.171 336.344 300.171 335.244ZM304.825 336.836V335.714C304.642 335.782 304.39 335.828 304.149 335.828C303.496 335.828 303.187 335.565 303.187 334.854V332.3H304.825V331.177H303.187V329.584H301.927V331.177H300.735V332.3H301.927V335.061C301.927 336.355 302.786 336.962 303.886 336.962C304.275 336.962 304.573 336.917 304.825 336.836ZM311.533 334.041C311.533 332.38 310.227 331.062 308.531 331.062C306.836 331.062 305.53 332.38 305.53 334.041C305.53 335.702 306.836 337.02 308.531 337.02C310.227 337.02 311.533 335.702 311.533 334.041ZM306.801 334.041C306.801 333.021 307.512 332.231 308.531 332.231C309.539 332.231 310.25 333.021 310.25 334.041C310.25 335.061 309.539 335.851 308.531 335.851C307.512 335.851 306.801 335.061 306.801 334.041ZM312.8 336.905H314.061V334.11C314.061 332.964 314.714 332.357 315.435 332.357C315.665 332.357 315.848 332.391 316.066 332.46V331.165C315.894 331.131 315.733 331.119 315.573 331.119C314.92 331.119 314.278 331.543 314.061 332.196V331.177H312.8V336.905ZM320.578 336.836V335.714C320.395 335.782 320.143 335.828 319.902 335.828C319.249 335.828 318.94 335.565 318.94 334.854V332.3H320.578V331.177H318.94V329.584H317.68V331.177H316.488V332.3H317.68V335.061C317.68 336.355 318.539 336.962 319.639 336.962C320.028 336.962 320.326 336.917 320.578 336.836ZM323.24 329.08C323.24 328.622 322.873 328.244 322.404 328.244C321.945 328.244 321.556 328.622 321.556 329.08C321.556 329.55 321.945 329.928 322.404 329.928C322.873 329.928 323.24 329.55 323.24 329.08ZM321.773 336.905H323.034V331.177H321.773V336.905ZM324.727 336.905H325.987V334.087C325.987 332.861 326.629 332.208 327.465 332.208C328.199 332.208 328.657 332.758 328.657 333.663V336.905H329.917V333.457C329.917 332.002 329.058 331.062 327.729 331.062C326.984 331.062 326.331 331.383 325.987 331.956V331.177H324.727V336.905ZM336.972 336.516V331.177H335.711V331.944C335.368 331.44 334.669 331.062 333.878 331.062C332.332 331.062 331.129 332.345 331.129 333.961C331.129 335.588 332.332 336.871 333.878 336.871C334.669 336.871 335.368 336.481 335.711 335.977V336.504C335.711 337.661 334.932 338.291 333.981 338.291C333.214 338.291 332.561 337.982 332.08 337.455L331.312 338.36C331.873 338.99 332.87 339.414 333.993 339.414C335.688 339.414 336.972 338.509 336.972 336.516ZM332.4 333.961C332.4 332.941 333.134 332.208 334.107 332.208C335.081 332.208 335.814 332.941 335.814 333.961C335.814 334.98 335.081 335.714 334.107 335.714C333.134 335.714 332.4 334.98 332.4 333.961ZM344.599 336.836V335.714C344.416 335.782 344.164 335.828 343.924 335.828C343.271 335.828 342.961 335.565 342.961 334.854V332.3H344.599V331.177H342.961V329.584H341.701V331.177H340.509V332.3H341.701V335.061C341.701 336.355 342.56 336.962 343.66 336.962C344.05 336.962 344.347 336.917 344.599 336.836ZM345.795 336.905H347.055V334.087C347.055 332.861 347.697 332.208 348.533 332.208C349.266 332.208 349.724 332.758 349.724 333.663V336.905H350.985V333.457C350.985 332.002 350.125 331.062 348.796 331.062C348.052 331.062 347.399 331.383 347.055 331.956V328.313H345.795V336.905ZM352.196 334.041C352.196 335.782 353.445 337.02 355.186 337.02C356.389 337.02 357.283 336.504 357.799 335.691L356.836 335.003C356.538 335.507 356 335.874 355.198 335.874C354.247 335.874 353.491 335.255 353.433 334.316H357.936C357.947 334.133 357.947 334.029 357.947 333.903C357.947 332.059 356.687 331.062 355.186 331.062C353.445 331.062 352.196 332.357 352.196 334.041ZM355.141 332.128C355.874 332.128 356.538 332.574 356.676 333.399H353.491C353.663 332.552 354.407 332.128 355.141 332.128ZM312.086 351.836V350.714C311.903 350.782 311.651 350.828 311.41 350.828C310.757 350.828 310.448 350.565 310.448 349.854V347.3H312.086V346.177H310.448V344.584H309.188V346.177H307.996V347.3H309.188V350.061C309.188 351.355 310.047 351.962 311.147 351.962C311.536 351.962 311.834 351.917 312.086 351.836ZM313.282 351.905H314.542V349.11C314.542 347.964 315.195 347.357 315.917 347.357C316.146 347.357 316.329 347.391 316.547 347.46V346.165C316.375 346.131 316.214 346.119 316.054 346.119C315.401 346.119 314.759 346.543 314.542 347.196V346.177H313.282V351.905ZM317.554 349.602C317.554 351.069 318.367 352.02 319.685 352.02C320.418 352.02 321.025 351.699 321.357 351.126V351.905H322.617V346.177H321.357V348.995C321.357 350.221 320.773 350.874 319.959 350.874C319.226 350.874 318.814 350.313 318.814 349.396V346.177H317.554V349.602ZM327.739 351.836V350.714C327.555 350.782 327.303 350.828 327.063 350.828C326.41 350.828 326.1 350.565 326.1 349.854V347.3H327.739V346.177H326.1V344.584H324.84V346.177H323.649V347.3H324.84V350.061C324.84 351.355 325.699 351.962 326.799 351.962C327.189 351.962 327.487 351.917 327.739 351.836ZM328.934 351.905H330.194V349.087C330.194 347.861 330.836 347.208 331.672 347.208C332.405 347.208 332.864 347.758 332.864 348.663V351.905H334.124V348.457C334.124 347.002 333.265 346.062 331.936 346.062C331.191 346.062 330.538 346.383 330.194 346.956V343.313H328.934V351.905Z" fill="#212121"/>
<path opacity="0.8" d="M277.279 370.997H278.045V368.787C278.045 367.78 278.553 367.156 279.275 367.156C279.854 367.156 280.148 367.656 280.148 368.377V370.997H280.914V368.787C280.914 367.78 281.413 367.156 282.135 367.156C282.714 367.156 283.017 367.656 283.017 368.377V370.997H283.784V368.261C283.784 367.174 283.196 366.453 282.224 366.453C281.565 366.453 281.004 366.818 280.763 367.406C280.54 366.818 280.059 366.453 279.391 366.453C278.794 366.453 278.304 366.756 278.045 367.228V366.542H277.279V370.997ZM284.815 368.769C284.815 370.044 285.751 371.086 286.998 371.086C287.667 371.086 288.273 370.739 288.567 370.311V370.997H289.333V366.542H288.567V367.228C288.273 366.8 287.667 366.453 286.998 366.453C285.751 366.453 284.815 367.495 284.815 368.769ZM288.629 368.769C288.629 369.669 288.014 370.382 287.114 370.382C286.214 370.382 285.591 369.669 285.591 368.769C285.591 367.869 286.214 367.156 287.114 367.156C288.014 367.156 288.629 367.869 288.629 368.769ZM290.776 370.997H291.542V368.769L293.957 370.997H294.99L292.308 368.511L294.5 366.542H293.485L291.542 368.279V364.314H290.776V370.997ZM296.506 364.804C296.506 364.51 296.274 364.26 295.971 364.26C295.668 364.26 295.419 364.51 295.419 364.804C295.419 365.107 295.668 365.348 295.971 365.348C296.274 365.348 296.506 365.107 296.506 364.804ZM295.579 370.997H296.345V366.542H295.579V370.997ZM297.798 370.997H298.564V368.787C298.564 367.745 299.135 367.156 299.857 367.156C300.48 367.156 300.908 367.62 300.908 368.368V370.997H301.665V368.253C301.665 367.148 300.979 366.453 299.981 366.453C299.402 366.453 298.867 366.702 298.564 367.228V366.542H297.798V370.997ZM307.198 370.739V366.542H306.432V367.228C306.129 366.782 305.541 366.453 304.881 366.453C303.642 366.453 302.698 367.451 302.698 368.716C302.698 369.99 303.642 370.988 304.881 370.988C305.541 370.988 306.129 370.65 306.432 370.204V370.712C306.432 371.781 305.701 372.254 304.943 372.254C304.257 372.254 303.741 371.959 303.384 371.505L302.849 372.04C303.233 372.539 303.981 372.949 304.943 372.949C306.218 372.949 307.198 372.227 307.198 370.739ZM303.482 368.716C303.482 367.825 304.097 367.156 304.988 367.156C305.879 367.156 306.494 367.825 306.494 368.716C306.494 369.616 305.879 370.275 304.988 370.275C304.097 370.275 303.482 369.616 303.482 368.716ZM310.443 368.769C310.443 370.044 311.378 371.086 312.626 371.086C313.294 371.086 313.9 370.739 314.194 370.311V370.997H314.961V366.542H314.194V367.228C313.9 366.8 313.294 366.453 312.626 366.453C311.378 366.453 310.443 367.495 310.443 368.769ZM314.257 368.769C314.257 369.669 313.642 370.382 312.742 370.382C311.842 370.382 311.218 369.669 311.218 368.769C311.218 367.869 311.842 367.156 312.742 367.156C313.642 367.156 314.257 367.869 314.257 368.769ZM316.403 370.997H317.169V368.787C317.169 367.745 317.784 367.255 318.346 367.255C318.497 367.255 318.622 367.272 318.764 367.326V366.533C318.64 366.506 318.533 366.497 318.417 366.497C317.9 366.497 317.348 366.836 317.169 367.406V366.542H316.403V370.997ZM323.688 370.739V366.542H322.922V367.228C322.619 366.782 322.031 366.453 321.371 366.453C320.133 366.453 319.188 367.451 319.188 368.716C319.188 369.99 320.133 370.988 321.371 370.988C322.031 370.988 322.619 370.65 322.922 370.204V370.712C322.922 371.781 322.191 372.254 321.434 372.254C320.748 372.254 320.231 371.959 319.874 371.505L319.34 372.04C319.723 372.539 320.471 372.949 321.434 372.949C322.708 372.949 323.688 372.227 323.688 370.739ZM319.972 368.716C319.972 367.825 320.587 367.156 321.478 367.156C322.369 367.156 322.984 367.825 322.984 368.716C322.984 369.616 322.369 370.275 321.478 370.275C320.587 370.275 319.972 369.616 319.972 368.716ZM325.069 369.277C325.069 370.382 325.728 371.086 326.708 371.086C327.27 371.086 327.787 370.828 328.081 370.311V370.997H328.847V366.542H328.081V368.752C328.081 369.776 327.537 370.382 326.842 370.382C326.227 370.382 325.835 369.91 325.835 369.161V366.542H325.069V369.277ZM330.291 370.997H331.058V368.787C331.058 367.78 331.566 367.156 332.287 367.156C332.867 367.156 333.161 367.656 333.161 368.377V370.997H333.927V368.787C333.927 367.78 334.426 367.156 335.148 367.156C335.727 367.156 336.03 367.656 336.03 368.377V370.997H336.796V368.261C336.796 367.174 336.208 366.453 335.237 366.453C334.578 366.453 334.016 366.818 333.776 367.406C333.553 366.818 333.072 366.453 332.403 366.453C331.806 366.453 331.316 366.756 331.058 367.228V366.542H330.291V370.997ZM337.828 368.769C337.828 370.079 338.755 371.086 340.136 371.086C341.063 371.086 341.74 370.676 342.141 370.026L341.535 369.607C341.259 370.079 340.831 370.382 340.145 370.382C339.263 370.382 338.63 369.758 338.603 368.921H342.257C342.266 368.823 342.266 368.769 342.266 368.689C342.257 367.263 341.312 366.453 340.145 366.453C338.79 366.453 337.828 367.468 337.828 368.769ZM340.118 367.13C340.795 367.13 341.374 367.566 341.481 368.297H338.657C338.799 367.557 339.45 367.13 340.118 367.13ZM343.353 370.997H344.119V368.787C344.119 367.745 344.69 367.156 345.412 367.156C346.035 367.156 346.463 367.62 346.463 368.368V370.997H347.22V368.253C347.22 367.148 346.534 366.453 345.536 366.453C344.957 366.453 344.422 366.702 344.119 367.228V366.542H343.353V370.997ZM350.963 370.935V370.249C350.821 370.302 350.607 370.338 350.42 370.338C349.938 370.338 349.68 370.151 349.68 369.58V367.246H350.963V366.542H349.68V365.303H348.914V366.542H347.969V367.246H348.914V369.678C348.914 370.605 349.502 371.042 350.277 371.042C350.553 371.042 350.776 370.997 350.963 370.935ZM354.838 369.75C354.838 369.072 354.393 368.671 353.626 368.44L353.136 368.288C352.646 368.137 352.503 367.914 352.503 367.647C352.503 367.317 352.869 367.112 353.243 367.112C353.671 367.112 353.974 367.335 354.17 367.62L354.74 367.228C354.446 366.729 353.929 366.453 353.27 366.453C352.414 366.453 351.746 366.907 351.737 367.673C351.737 368.297 352.12 368.76 352.851 368.974L353.296 369.117C353.876 369.295 354.072 369.491 354.072 369.812C354.072 370.195 353.724 370.409 353.296 370.409C352.806 370.409 352.325 370.159 352.165 369.705L351.541 370.053C351.808 370.748 352.494 371.086 353.288 371.086C354.179 371.086 354.838 370.605 354.838 369.75ZM358.364 370.997H359.131V367.246H360.423V366.542H359.131V365.722C359.131 365.16 359.38 364.964 359.87 364.964C360.048 364.964 360.28 365 360.423 365.054V364.376C360.227 364.305 359.995 364.26 359.728 364.26C358.952 364.26 358.364 364.724 358.364 365.642V366.542H357.42V367.246H358.364V370.997ZM362.187 364.804C362.187 364.51 361.955 364.26 361.652 364.26C361.349 364.26 361.1 364.51 361.1 364.804C361.1 365.107 361.349 365.348 361.652 365.348C361.955 365.348 362.187 365.107 362.187 364.804ZM361.26 370.997H362.027V366.542H361.26V370.997ZM365.887 370.935V370.249C365.744 370.302 365.531 370.338 365.343 370.338C364.862 370.338 364.604 370.151 364.604 369.58V367.246H365.887V366.542H364.604V365.303H363.838V366.542H362.893V367.246H363.838V369.678C363.838 370.605 364.426 371.042 365.201 371.042C365.477 371.042 365.7 370.997 365.887 370.935ZM297.076 384.997H297.842V382.787C297.842 381.78 298.35 381.156 299.072 381.156C299.651 381.156 299.945 381.656 299.945 382.377V384.997H300.712V382.787C300.712 381.78 301.211 381.156 301.932 381.156C302.512 381.156 302.814 381.656 302.814 382.377V384.997H303.581V382.261C303.581 381.174 302.993 380.453 302.021 380.453C301.362 380.453 300.801 380.818 300.56 381.406C300.337 380.818 299.856 380.453 299.188 380.453C298.591 380.453 298.101 380.756 297.842 381.228V380.542H297.076V384.997ZM306.058 386.859L308.981 380.542H308.125L306.602 383.919L305.069 380.542H304.222L306.174 384.765L305.203 386.859H306.058ZM315.999 382.769C315.999 381.486 315.01 380.453 313.673 380.453C312.328 380.453 311.339 381.486 311.339 382.769C311.339 384.053 312.328 385.086 313.673 385.086C315.01 385.086 315.999 384.053 315.999 382.769ZM312.123 382.769C312.123 381.878 312.747 381.165 313.673 381.165C314.6 381.165 315.215 381.878 315.215 382.769C315.215 383.66 314.6 384.373 313.673 384.373C312.747 384.373 312.123 383.66 312.123 382.769ZM317.099 386.859H317.866V384.311C318.16 384.739 318.766 385.086 319.434 385.086C320.672 385.086 321.617 384.044 321.617 382.769C321.617 381.495 320.672 380.453 319.434 380.453C318.766 380.453 318.16 380.8 317.866 381.228V380.542H317.099V386.859ZM320.833 382.769C320.833 383.669 320.218 384.382 319.318 384.382C318.418 384.382 317.803 383.669 317.803 382.769C317.803 381.869 318.418 381.156 319.318 381.156C320.218 381.156 320.833 381.869 320.833 382.769ZM323.647 378.804C323.647 378.51 323.416 378.26 323.113 378.26C322.81 378.26 322.56 378.51 322.56 378.804C322.56 379.107 322.81 379.348 323.113 379.348C323.416 379.348 323.647 379.107 323.647 378.804ZM322.721 384.997H323.487V380.542H322.721V384.997ZM324.94 384.997H325.706V382.787C325.706 381.745 326.276 381.156 326.998 381.156C327.622 381.156 328.05 381.62 328.05 382.368V384.997H328.807V382.253C328.807 381.148 328.121 380.453 327.123 380.453C326.544 380.453 326.009 380.702 325.706 381.228V380.542H324.94V384.997ZM331.114 378.804C331.114 378.51 330.882 378.26 330.579 378.26C330.276 378.26 330.027 378.51 330.027 378.804C330.027 379.107 330.276 379.348 330.579 379.348C330.882 379.348 331.114 379.107 331.114 378.804ZM330.187 384.997H330.953V380.542H330.187V384.997ZM336.71 382.769C336.71 381.486 335.721 380.453 334.384 380.453C333.039 380.453 332.05 381.486 332.05 382.769C332.05 384.053 333.039 385.086 334.384 385.086C335.721 385.086 336.71 384.053 336.71 382.769ZM332.834 382.769C332.834 381.878 333.458 381.165 334.384 381.165C335.311 381.165 335.926 381.878 335.926 382.769C335.926 383.66 335.311 384.373 334.384 384.373C333.458 384.373 332.834 383.66 332.834 382.769ZM337.81 384.997H338.576V382.787C338.576 381.745 339.147 381.156 339.868 381.156C340.492 381.156 340.92 381.62 340.92 382.368V384.997H341.677V382.253C341.677 381.148 340.991 380.453 339.993 380.453C339.414 380.453 338.879 380.702 338.576 381.228V380.542H337.81V384.997ZM345.953 383.75C345.953 383.072 345.508 382.671 344.741 382.44L344.251 382.288C343.761 382.137 343.619 381.914 343.619 381.647C343.619 381.317 343.984 381.112 344.358 381.112C344.786 381.112 345.089 381.335 345.285 381.62L345.855 381.228C345.561 380.729 345.044 380.453 344.385 380.453C343.53 380.453 342.861 380.907 342.852 381.673C342.852 382.297 343.235 382.76 343.966 382.974L344.412 383.117C344.991 383.295 345.187 383.491 345.187 383.812C345.187 384.195 344.839 384.409 344.412 384.409C343.922 384.409 343.44 384.159 343.28 383.705L342.656 384.053C342.924 384.748 343.61 385.086 344.403 385.086C345.294 385.086 345.953 384.605 345.953 383.75Z" fill="#212121"/>
<g filter="url(#filter6_d_1_647)">
<path d="M317.53 421.738C317.53 412.247 309.836 404.553 300.345 404.553C290.854 404.553 283.16 412.247 283.16 421.738C283.16 431.229 290.854 438.923 300.345 438.923C309.836 438.923 317.53 431.229 317.53 421.738Z" fill="#6442EF"/>
<path d="M305.332 417.256L298.33 424.894L295.148 421.422" stroke="white" stroke-width="1.27298" stroke-linecap="round" stroke-linejoin="round"/>
</g>
<g filter="url(#filter7_dd_1_647)">
<path d="M359.537 421.738C359.537 412.247 351.843 404.553 342.352 404.553C332.861 404.553 325.167 412.247 325.167 421.738C325.167 431.229 332.861 438.923 342.352 438.923C351.843 438.923 359.537 431.229 359.537 421.738Z" fill="white"/>
<path d="M343.988 418.875H338.851C338.171 418.875 337.62 419.426 337.62 420.106V425.243C337.62 425.923 338.171 426.475 338.851 426.475H343.988C344.668 426.475 345.22 425.923 345.22 425.243V420.106C345.22 419.426 344.668 418.875 343.988 418.875Z" stroke="#A2A2A2" stroke-width="1.27298"/>
<path d="M341.651 416.365H344.92C346.468 416.365 347.722 417.62 347.722 419.167V422.903" stroke="#A2A2A2" stroke-width="1.27298" stroke-linecap="round"/>
</g>
</g>
<g filter="url(#filter8_d_1_647)">
<path d="M255.15 401.748C255.15 373.626 232.353 350.829 204.231 350.829C176.109 350.829 153.312 373.626 153.312 401.748C153.312 429.87 176.109 452.667 204.231 452.667C232.353 452.667 255.15 429.87 255.15 401.748Z" fill="#DBE4FE"/>
<path d="M189.326 394.648L192.007 391.005V396.764H193.342V388.73H192.132L189.314 392.532L186.508 388.73H185.297V396.764H186.621V390.993L189.326 394.648ZM194.644 393.935C194.644 395.553 195.821 396.877 197.371 396.877C198.185 396.877 198.864 396.459 199.181 396.006V396.764H200.426V391.106H199.181V391.864C198.864 391.412 198.185 390.993 197.371 390.993C195.821 390.993 194.644 392.317 194.644 393.935ZM199.283 393.935C199.283 394.954 198.604 395.746 197.597 395.746C196.59 395.746 195.911 394.954 195.911 393.935C195.911 392.917 196.59 392.125 197.597 392.125C198.604 392.125 199.283 392.917 199.283 393.935ZM202.112 396.764H203.357V394.026L206.061 396.764H207.657L204.568 393.63L207.091 391.106H205.518L203.357 393.256V388.278H202.112V396.764ZM209.749 389.036C209.749 388.583 209.387 388.21 208.923 388.21C208.47 388.21 208.085 388.583 208.085 389.036C208.085 389.5 208.47 389.873 208.923 389.873C209.387 389.873 209.749 389.5 209.749 389.036ZM208.3 396.764H209.545V391.106H208.3V396.764ZM211.217 396.764H212.462V393.98C212.462 392.77 213.096 392.125 213.922 392.125C214.646 392.125 215.099 392.668 215.099 393.562V396.764H216.343V393.358C216.343 391.921 215.495 390.993 214.182 390.993C213.447 390.993 212.802 391.31 212.462 391.876V391.106H211.217V396.764ZM223.311 396.379V391.106H222.066V391.864C221.727 391.367 221.036 390.993 220.256 390.993C218.728 390.993 217.54 392.261 217.54 393.856C217.54 395.463 218.728 396.73 220.256 396.73C221.036 396.73 221.727 396.345 222.066 395.847V396.368C222.066 397.511 221.297 398.133 220.357 398.133C219.599 398.133 218.954 397.828 218.479 397.307L217.721 398.201C218.275 398.823 219.26 399.242 220.369 399.242C222.043 399.242 223.311 398.348 223.311 396.379ZM218.796 393.856C218.796 392.849 219.52 392.125 220.482 392.125C221.444 392.125 222.168 392.849 222.168 393.856C222.168 394.863 221.444 395.587 220.482 395.587C219.52 395.587 218.796 394.863 218.796 393.856ZM172.126 409.49C172.126 410.938 172.929 411.877 174.23 411.877C174.955 411.877 175.554 411.56 175.882 410.995V411.764H177.127V406.106H175.882V408.89C175.882 410.101 175.305 410.746 174.502 410.746C173.778 410.746 173.37 410.191 173.37 409.286V406.106H172.126V409.49ZM178.802 414.129H180.047V411.006C180.363 411.459 181.054 411.877 181.868 411.877C183.418 411.877 184.595 410.553 184.595 408.935C184.595 407.317 183.418 405.993 181.868 405.993C181.054 405.993 180.363 406.412 180.047 406.864V406.106H178.802V414.129ZM183.328 408.935C183.328 409.954 182.638 410.746 181.642 410.746C180.635 410.746 179.945 409.954 179.945 408.935C179.945 407.917 180.635 407.125 181.642 407.125C182.638 407.125 183.328 407.917 183.328 408.935ZM189.688 410.123C189.688 409.195 189.1 408.698 188.104 408.403L187.527 408.234C186.972 408.075 186.848 407.838 186.848 407.566C186.848 407.227 187.233 407.034 187.606 407.034C188.07 407.034 188.432 407.261 188.681 407.611L189.541 406.955C189.145 406.333 188.477 405.993 187.629 405.993C186.497 405.993 185.614 406.604 185.603 407.611C185.592 408.449 186.101 409.071 187.085 409.343L187.583 409.478C188.262 409.682 188.455 409.874 188.455 410.203C188.455 410.599 188.081 410.802 187.64 410.802C187.063 410.802 186.508 410.519 186.282 410.021L185.366 410.678C185.773 411.481 186.633 411.877 187.64 411.877C188.805 411.877 189.688 411.21 189.688 410.123ZM190.583 408.935C190.583 410.655 191.816 411.877 193.536 411.877C194.724 411.877 195.607 411.368 196.116 410.565L195.166 409.886C194.872 410.384 194.34 410.746 193.548 410.746C192.609 410.746 191.862 410.135 191.805 409.207H196.252C196.263 409.026 196.263 408.924 196.263 408.799C196.263 406.978 195.019 405.993 193.536 405.993C191.816 405.993 190.583 407.272 190.583 408.935ZM193.491 407.046C194.215 407.046 194.872 407.487 195.007 408.302H191.862C192.031 407.464 192.767 407.046 193.491 407.046ZM200.838 411.696V410.587C200.657 410.655 200.408 410.7 200.17 410.7C199.525 410.7 199.22 410.44 199.22 409.739V407.215H200.838V406.106H199.22V404.534H197.975V406.106H196.798V407.215H197.975V409.942C197.975 411.221 198.824 411.821 199.91 411.821C200.295 411.821 200.589 411.775 200.838 411.696ZM204.681 411.764H205.926V408.98C205.926 407.77 206.56 407.125 207.386 407.125C208.11 407.125 208.562 407.668 208.562 408.562V411.764H209.807V408.358C209.807 406.921 208.959 405.993 207.646 405.993C206.91 405.993 206.265 406.31 205.926 406.876V406.106H204.681V411.764ZM216.922 408.935C216.922 407.294 215.632 405.993 213.957 405.993C212.282 405.993 210.992 407.294 210.992 408.935C210.992 410.576 212.282 411.877 213.957 411.877C215.632 411.877 216.922 410.576 216.922 408.935ZM212.248 408.935C212.248 407.928 212.95 407.147 213.957 407.147C214.953 407.147 215.654 407.928 215.654 408.935C215.654 409.942 214.953 410.723 213.957 410.723C212.95 410.723 212.248 409.942 212.248 408.935ZM219.622 404.036C219.622 403.583 219.26 403.21 218.796 403.21C218.343 403.21 217.959 403.583 217.959 404.036C217.959 404.5 218.343 404.873 218.796 404.873C219.26 404.873 219.622 404.5 219.622 404.036ZM218.174 411.764H219.418V406.106H218.174V411.764ZM224.938 410.123C224.938 409.195 224.35 408.698 223.354 408.403L222.777 408.234C222.222 408.075 222.098 407.838 222.098 407.566C222.098 407.227 222.483 407.034 222.856 407.034C223.32 407.034 223.682 407.261 223.931 407.611L224.791 406.955C224.395 406.333 223.727 405.993 222.879 405.993C221.747 405.993 220.864 406.604 220.853 407.611C220.842 408.449 221.351 409.071 222.335 409.343L222.833 409.478C223.512 409.682 223.705 409.874 223.705 410.203C223.705 410.599 223.331 410.802 222.89 410.802C222.313 410.802 221.758 410.519 221.532 410.021L220.616 410.678C221.023 411.481 221.883 411.877 222.89 411.877C224.055 411.877 224.938 411.21 224.938 410.123ZM225.833 408.935C225.833 410.655 227.066 411.877 228.786 411.877C229.975 411.877 230.857 411.368 231.366 410.565L230.416 409.886C230.122 410.384 229.59 410.746 228.798 410.746C227.859 410.746 227.112 410.135 227.055 409.207H231.502C231.513 409.026 231.513 408.924 231.513 408.799C231.513 406.978 230.269 405.993 228.786 405.993C227.066 405.993 225.833 407.272 225.833 408.935ZM228.741 407.046C229.465 407.046 230.122 407.487 230.257 408.302H227.112C227.281 407.464 228.017 407.046 228.741 407.046ZM236.64 410.123C236.64 409.195 236.052 408.698 235.056 408.403L234.479 408.234C233.924 408.075 233.8 407.838 233.8 407.566C233.8 407.227 234.185 407.034 234.558 407.034C235.022 407.034 235.384 407.261 235.633 407.611L236.493 406.955C236.097 406.333 235.429 405.993 234.581 405.993C233.449 405.993 232.567 406.604 232.555 407.611C232.544 408.449 233.053 409.071 234.038 409.343L234.535 409.478C235.214 409.682 235.407 409.874 235.407 410.203C235.407 410.599 235.033 410.802 234.592 410.802C234.015 410.802 233.461 410.519 233.234 410.021L232.318 410.678C232.725 411.481 233.585 411.877 234.592 411.877C235.758 411.877 236.64 411.21 236.64 410.123Z" fill="#212121"/>
</g>
<g filter="url(#filter9_d_1_647)">
<path d="M345.861 237.483C345.861 209.361 323.064 186.564 294.942 186.564C266.82 186.564 244.023 209.361 244.023 237.483C244.023 265.605 266.82 288.402 294.942 288.402C323.064 288.402 345.861 265.605 345.861 237.483Z" fill="#DBE4FE"/>
<path d="M264.741 232.498H266.065V225.732H268.408V224.464H262.41V225.732H264.741V232.498ZM268.04 229.67C268.04 231.288 269.217 232.612 270.767 232.612C271.582 232.612 272.261 232.193 272.578 231.74V232.498H273.822V226.841H272.578V227.599C272.261 227.146 271.582 226.728 270.767 226.728C269.217 226.728 268.04 228.051 268.04 229.67ZM272.679 229.67C272.679 230.688 272 231.48 270.993 231.48C269.986 231.48 269.307 230.688 269.307 229.67C269.307 228.651 269.986 227.859 270.993 227.859C272 227.859 272.679 228.651 272.679 229.67ZM275.508 232.498H276.753V229.76L279.458 232.498H281.053L277.964 229.364L280.487 226.841H278.914L276.753 228.991V224.012H275.508V232.498ZM283.145 224.77C283.145 224.317 282.783 223.944 282.319 223.944C281.866 223.944 281.482 224.317 281.482 224.77C281.482 225.234 281.866 225.607 282.319 225.607C282.783 225.607 283.145 225.234 283.145 224.77ZM281.697 232.498H282.941V226.841H281.697V232.498ZM284.614 232.498H285.858V229.715C285.858 228.504 286.492 227.859 287.318 227.859C288.042 227.859 288.495 228.402 288.495 229.296V232.498H289.74V229.092C289.74 227.655 288.891 226.728 287.578 226.728C286.843 226.728 286.198 227.044 285.858 227.61V226.841H284.614V232.498ZM296.707 232.114V226.841H295.462V227.599C295.123 227.101 294.433 226.728 293.652 226.728C292.124 226.728 290.936 227.995 290.936 229.59C290.936 231.197 292.124 232.464 293.652 232.464C294.433 232.464 295.123 232.08 295.462 231.582V232.102C295.462 233.245 294.693 233.868 293.754 233.868C292.996 233.868 292.351 233.562 291.875 233.041L291.117 233.935C291.672 234.558 292.656 234.976 293.765 234.976C295.44 234.976 296.707 234.083 296.707 232.114ZM292.192 229.59C292.192 228.583 292.916 227.859 293.878 227.859C294.84 227.859 295.564 228.583 295.564 229.59C295.564 230.597 294.84 231.322 293.878 231.322C292.916 231.322 292.192 230.597 292.192 229.59ZM301.045 232.498H302.29V229.715C302.29 228.527 302.845 227.859 303.648 227.859C304.327 227.859 304.655 228.436 304.655 229.319V232.498H305.9V229.715C305.9 228.527 306.443 227.859 307.246 227.859C307.925 227.859 308.253 228.436 308.253 229.319V232.498H309.498V229.115C309.498 227.667 308.74 226.728 307.461 226.728C306.714 226.728 305.99 227.124 305.651 227.848C305.345 227.146 304.734 226.728 303.897 226.728C303.173 226.728 302.607 227.078 302.29 227.61V226.841H301.045V232.498ZM316.612 229.67C316.612 228.029 315.322 226.728 313.647 226.728C311.973 226.728 310.683 228.029 310.683 229.67C310.683 231.31 311.973 232.612 313.647 232.612C315.322 232.612 316.612 231.31 316.612 229.67ZM311.939 229.67C311.939 228.662 312.64 227.882 313.647 227.882C314.643 227.882 315.345 228.662 315.345 229.67C315.345 230.677 314.643 231.457 313.647 231.457C312.64 231.457 311.939 230.677 311.939 229.67ZM317.864 232.498H319.108V229.737C319.108 228.606 319.753 228.006 320.466 228.006C320.693 228.006 320.874 228.04 321.089 228.108V226.829C320.919 226.795 320.76 226.784 320.602 226.784C319.957 226.784 319.323 227.203 319.108 227.848V226.841H317.864V232.498ZM321.567 229.67C321.567 231.389 322.801 232.612 324.521 232.612C325.709 232.612 326.591 232.102 327.101 231.299L326.15 230.62C325.856 231.118 325.324 231.48 324.532 231.48C323.593 231.48 322.846 230.869 322.789 229.941H327.236C327.248 229.76 327.248 229.658 327.248 229.534C327.248 227.712 326.003 226.728 324.521 226.728C322.801 226.728 321.567 228.006 321.567 229.67ZM324.475 227.78C325.2 227.78 325.856 228.221 325.992 229.036H322.846C323.016 228.199 323.751 227.78 324.475 227.78ZM283.538 245.858C283.538 244.93 282.95 244.432 281.954 244.138L281.377 243.968C280.822 243.81 280.698 243.572 280.698 243.3C280.698 242.961 281.083 242.769 281.456 242.769C281.92 242.769 282.282 242.995 282.531 243.346L283.391 242.689C282.995 242.067 282.327 241.728 281.479 241.728C280.347 241.728 279.465 242.339 279.453 243.346C279.442 244.183 279.951 244.805 280.936 245.077L281.434 245.213C282.112 245.416 282.305 245.609 282.305 245.937C282.305 246.333 281.931 246.537 281.49 246.537C280.913 246.537 280.359 246.254 280.132 245.756L279.216 246.412C279.623 247.215 280.483 247.612 281.49 247.612C282.656 247.612 283.538 246.944 283.538 245.858ZM284.829 249.863H286.074V246.74C286.391 247.193 287.081 247.612 287.896 247.612C289.446 247.612 290.623 246.288 290.623 244.67C290.623 243.051 289.446 241.728 287.896 241.728C287.081 241.728 286.391 242.146 286.074 242.599V241.841H284.829V249.863ZM289.355 244.67C289.355 245.688 288.665 246.48 287.669 246.48C286.662 246.48 285.972 245.688 285.972 244.67C285.972 243.651 286.662 242.859 287.669 242.859C288.665 242.859 289.355 243.651 289.355 244.67ZM291.483 244.67C291.483 246.288 292.66 247.612 294.21 247.612C295.025 247.612 295.704 247.193 296.02 246.74V247.498H297.265V241.841H296.02V242.599C295.704 242.146 295.025 241.728 294.21 241.728C292.66 241.728 291.483 243.051 291.483 244.67ZM296.122 244.67C296.122 245.688 295.443 246.48 294.436 246.48C293.429 246.48 292.75 245.688 292.75 244.67C292.75 243.651 293.429 242.859 294.436 242.859C295.443 242.859 296.122 243.651 296.122 244.67ZM304.168 246.05L303.081 245.462C302.81 246.039 302.255 246.457 301.531 246.457C300.524 246.457 299.811 245.677 299.811 244.67C299.811 243.662 300.524 242.882 301.531 242.882C302.255 242.882 302.81 243.3 303.081 243.877L304.168 243.289C303.681 242.35 302.697 241.728 301.531 241.728C299.834 241.728 298.544 242.995 298.544 244.67C298.544 246.344 299.834 247.612 301.531 247.612C302.697 247.612 303.681 246.989 304.168 246.05ZM304.909 244.67C304.909 246.389 306.143 247.612 307.862 247.612C309.051 247.612 309.933 247.102 310.442 246.299L309.492 245.62C309.198 246.118 308.666 246.48 307.874 246.48C306.935 246.48 306.188 245.869 306.131 244.941H310.578C310.589 244.76 310.589 244.658 310.589 244.534C310.589 242.712 309.345 241.728 307.862 241.728C306.143 241.728 304.909 243.006 304.909 244.67ZM307.817 242.78C308.541 242.78 309.198 243.221 309.333 244.036H306.188C306.358 243.199 307.093 242.78 307.817 242.78Z" fill="#212121"/>
</g>
<g filter="url(#filter10_d_1_647)">
<path d="M420.981 184.133C420.981 160.226 401.601 140.845 377.693 140.845C353.786 140.845 334.405 160.226 334.405 184.133V184.133C334.405 208.041 353.786 227.421 377.693 227.421C401.601 227.421 420.981 208.041 420.981 184.133V184.133Z" fill="#DBE4FE"/>
<path d="M356.658 179.593H358.226L356.706 178.266C357.13 177.679 357.38 176.967 357.38 176.178C357.38 174.206 355.802 172.648 353.849 172.648C351.887 172.648 350.319 174.206 350.319 176.178C350.319 178.15 351.887 179.709 353.849 179.709C354.648 179.709 355.388 179.449 355.985 178.997L356.658 179.593ZM351.454 176.178C351.454 174.822 352.493 173.735 353.849 173.735C355.196 173.735 356.235 174.822 356.235 176.178C356.235 176.669 356.1 177.131 355.85 177.515L354.744 176.544L354.071 177.323L355.129 178.246C354.763 178.487 354.321 178.622 353.849 178.622C352.493 178.622 351.454 177.535 351.454 176.178ZM358.61 177.66C358.61 178.891 359.293 179.689 360.399 179.689C361.015 179.689 361.525 179.42 361.804 178.939V179.593H362.862V174.783H361.804V177.15C361.804 178.179 361.313 178.727 360.63 178.727C360.015 178.727 359.668 178.256 359.668 177.487V174.783H358.61V177.66ZM363.949 177.188C363.949 178.65 364.998 179.689 366.46 179.689C367.47 179.689 368.22 179.257 368.653 178.574L367.845 177.996C367.595 178.42 367.143 178.727 366.47 178.727C365.671 178.727 365.036 178.208 364.988 177.419H368.769C368.778 177.265 368.778 177.179 368.778 177.073C368.778 175.524 367.72 174.687 366.46 174.687C364.998 174.687 363.949 175.774 363.949 177.188ZM366.421 175.582C367.037 175.582 367.595 175.957 367.71 176.65H365.036C365.18 175.938 365.806 175.582 366.421 175.582ZM373.137 178.198C373.137 177.41 372.636 176.986 371.79 176.736L371.299 176.592C370.828 176.457 370.722 176.255 370.722 176.024C370.722 175.736 371.049 175.572 371.367 175.572C371.761 175.572 372.069 175.765 372.281 176.063L373.012 175.505C372.675 174.976 372.107 174.687 371.386 174.687C370.424 174.687 369.674 175.207 369.664 176.063C369.654 176.775 370.087 177.304 370.924 177.535L371.347 177.65C371.925 177.823 372.088 177.987 372.088 178.266C372.088 178.602 371.771 178.776 371.396 178.776C370.905 178.776 370.434 178.535 370.241 178.112L369.462 178.67C369.808 179.353 370.539 179.689 371.396 179.689C372.386 179.689 373.137 179.122 373.137 178.198ZM377.045 179.535V178.593C376.891 178.65 376.679 178.689 376.477 178.689C375.929 178.689 375.669 178.468 375.669 177.871V175.726H377.045V174.783H375.669V173.446H374.611V174.783H373.611V175.726H374.611V178.044C374.611 179.131 375.332 179.641 376.256 179.641C376.583 179.641 376.833 179.603 377.045 179.535ZM379.28 173.023C379.28 172.638 378.972 172.321 378.577 172.321C378.193 172.321 377.866 172.638 377.866 173.023C377.866 173.417 378.193 173.735 378.577 173.735C378.972 173.735 379.28 173.417 379.28 173.023ZM378.048 179.593H379.106V174.783H378.048V179.593ZM385.223 177.188C385.223 175.793 384.126 174.687 382.702 174.687C381.279 174.687 380.182 175.793 380.182 177.188C380.182 178.583 381.279 179.689 382.702 179.689C384.126 179.689 385.223 178.583 385.223 177.188ZM381.25 177.188C381.25 176.332 381.846 175.668 382.702 175.668C383.549 175.668 384.145 176.332 384.145 177.188C384.145 178.044 383.549 178.708 382.702 178.708C381.846 178.708 381.25 178.044 381.25 177.188ZM386.287 179.593H387.345V177.227C387.345 176.197 387.884 175.649 388.586 175.649C389.202 175.649 389.586 176.111 389.586 176.871V179.593H390.645V176.698C390.645 175.476 389.923 174.687 388.807 174.687C388.182 174.687 387.634 174.957 387.345 175.438V174.783H386.287V179.593ZM393.23 173.023C393.23 172.638 392.922 172.321 392.528 172.321C392.143 172.321 391.816 172.638 391.816 173.023C391.816 173.417 392.143 173.735 392.528 173.735C392.922 173.735 393.23 173.417 393.23 173.023ZM391.999 179.593H393.057V174.783H391.999V179.593ZM394.479 179.593H395.537V177.227C395.537 176.197 396.076 175.649 396.778 175.649C397.393 175.649 397.778 176.111 397.778 176.871V179.593H398.836V176.698C398.836 175.476 398.115 174.687 396.999 174.687C396.374 174.687 395.825 174.957 395.537 175.438V174.783H394.479V179.593ZM404.76 179.266V174.783H403.701V175.428C403.413 175.005 402.826 174.687 402.162 174.687C400.864 174.687 399.854 175.765 399.854 177.121C399.854 178.487 400.864 179.564 402.162 179.564C402.826 179.564 403.413 179.237 403.701 178.814V179.257C403.701 180.228 403.047 180.757 402.249 180.757C401.604 180.757 401.056 180.497 400.652 180.055L400.008 180.815C400.479 181.344 401.316 181.7 402.259 181.7C403.682 181.7 404.76 180.94 404.76 179.266ZM400.921 177.121C400.921 176.265 401.537 175.649 402.355 175.649C403.172 175.649 403.788 176.265 403.788 177.121C403.788 177.977 403.172 178.593 402.355 178.593C401.537 178.593 400.921 177.977 400.921 177.121ZM363.469 192.593H364.527V190.227C364.527 189.217 364.998 188.649 365.681 188.649C366.258 188.649 366.537 189.14 366.537 189.89V192.593H367.595V190.227C367.595 189.217 368.057 188.649 368.74 188.649C369.317 188.649 369.596 189.14 369.596 189.89V192.593H370.654V189.717C370.654 188.486 370.01 187.687 368.923 187.687C368.288 187.687 367.672 188.024 367.384 188.64C367.124 188.043 366.605 187.687 365.893 187.687C365.277 187.687 364.796 187.985 364.527 188.438V187.783H363.469V192.593ZM373.434 194.604L376.522 187.783H375.349L373.877 191.189L372.395 187.783H371.231L373.3 192.333L372.27 194.604H373.434ZM380.455 191.198C380.455 190.41 379.954 189.986 379.108 189.736L378.617 189.592C378.146 189.457 378.04 189.255 378.04 189.024C378.04 188.736 378.367 188.572 378.685 188.572C379.079 188.572 379.387 188.765 379.599 189.063L380.33 188.505C379.993 187.976 379.425 187.687 378.704 187.687C377.742 187.687 376.992 188.207 376.982 189.063C376.972 189.775 377.405 190.304 378.242 190.535L378.665 190.65C379.243 190.823 379.406 190.987 379.406 191.266C379.406 191.602 379.089 191.776 378.714 191.776C378.223 191.776 377.752 191.535 377.559 191.112L376.78 191.67C377.126 192.353 377.857 192.689 378.714 192.689C379.704 192.689 380.455 192.122 380.455 191.198ZM381.216 190.188C381.216 191.65 382.264 192.689 383.726 192.689C384.736 192.689 385.487 192.257 385.92 191.574L385.112 190.996C384.861 191.42 384.409 191.727 383.736 191.727C382.938 191.727 382.303 191.208 382.255 190.419H386.035C386.045 190.265 386.045 190.179 386.045 190.073C386.045 188.524 384.987 187.687 383.726 187.687C382.264 187.687 381.216 188.774 381.216 190.188ZM383.688 188.582C384.304 188.582 384.861 188.957 384.977 189.65H382.303C382.447 188.938 383.072 188.582 383.688 188.582ZM387.132 192.593H388.191V185.378H387.132V192.593ZM390.065 192.593H391.123V188.726H392.498V187.783H391.123V187.1C391.123 186.504 391.382 186.283 391.931 186.283C392.133 186.283 392.344 186.321 392.498 186.379V185.436C392.296 185.369 392.037 185.321 391.71 185.321C390.786 185.321 390.065 185.898 390.065 186.975V187.783H389.064V188.726H390.065V192.593Z" fill="#212121"/>
</g>
<g filter="url(#filter11_d_1_647)">
<path d="M335.497 139.096C335.497 115.188 316.117 95.8073 292.209 95.8073C268.302 95.8073 248.921 115.188 248.921 139.096V139.096C248.921 163.003 268.302 182.384 292.209 182.384C316.117 182.384 335.497 163.003 335.497 139.096V139.096Z" fill="#DBE4FE"/>
<path d="M266.789 134.556H267.915V131.554H268.425L270.926 134.556H272.311L269.771 131.487C270.753 131.256 271.32 130.631 271.32 129.669C271.32 128.543 270.522 127.726 269.252 127.726H266.789V134.556ZM267.915 130.573V128.765H269.117C269.781 128.765 270.195 129.082 270.195 129.669C270.195 130.256 269.781 130.573 269.117 130.573H267.915ZM272.703 132.622C272.703 133.853 273.386 134.652 274.492 134.652C275.108 134.652 275.618 134.383 275.897 133.902V134.556H276.955V129.746H275.897V132.112C275.897 133.142 275.406 133.69 274.723 133.69C274.108 133.69 273.761 133.219 273.761 132.449V129.746H272.703V132.622ZM278.379 134.556H279.437V132.189C279.437 131.179 279.908 130.612 280.591 130.612C281.168 130.612 281.447 131.102 281.447 131.853V134.556H282.506V132.189C282.506 131.179 282.967 130.612 283.65 130.612C284.227 130.612 284.506 131.102 284.506 131.853V134.556H285.565V131.679C285.565 130.448 284.92 129.65 283.833 129.65C283.198 129.65 282.583 129.986 282.294 130.602C282.034 130.006 281.515 129.65 280.803 129.65C280.187 129.65 279.706 129.948 279.437 130.4V129.746H278.379V134.556ZM288.149 127.986C288.149 127.601 287.842 127.283 287.447 127.283C287.062 127.283 286.735 127.601 286.735 127.986C286.735 128.38 287.062 128.697 287.447 128.697C287.842 128.697 288.149 128.38 288.149 127.986ZM286.918 134.556H287.976V129.746H286.918V134.556ZM289.398 134.556H290.456V132.189C290.456 131.16 290.995 130.612 291.697 130.612C292.313 130.612 292.698 131.073 292.698 131.833V134.556H293.756V131.66C293.756 130.439 293.034 129.65 291.918 129.65C291.293 129.65 290.745 129.919 290.456 130.4V129.746H289.398V134.556ZM294.763 132.151C294.763 133.526 295.764 134.652 297.082 134.652C297.774 134.652 298.352 134.296 298.621 133.911V134.556H299.679V129.746H298.621V130.39C298.352 130.006 297.774 129.65 297.082 129.65C295.764 129.65 294.763 130.775 294.763 132.151ZM298.707 132.151C298.707 133.017 298.13 133.69 297.274 133.69C296.418 133.69 295.841 133.017 295.841 132.151C295.841 131.285 296.418 130.612 297.274 130.612C298.13 130.612 298.707 131.285 298.707 132.151ZM303.989 134.498V133.555C303.835 133.613 303.623 133.651 303.421 133.651C302.873 133.651 302.613 133.43 302.613 132.834V130.689H303.989V129.746H302.613V128.409H301.555V129.746H300.555V130.689H301.555V133.007C301.555 134.094 302.277 134.604 303.2 134.604C303.527 134.604 303.777 134.565 303.989 134.498ZM306.224 127.986C306.224 127.601 305.916 127.283 305.521 127.283C305.137 127.283 304.81 127.601 304.81 127.986C304.81 128.38 305.137 128.697 305.521 128.697C305.916 128.697 306.224 128.38 306.224 127.986ZM304.992 134.556H306.051V129.746H304.992V134.556ZM307.472 134.556H308.531V132.189C308.531 131.16 309.069 130.612 309.772 130.612C310.387 130.612 310.772 131.073 310.772 131.833V134.556H311.83V131.66C311.83 130.439 311.109 129.65 309.993 129.65C309.367 129.65 308.819 129.919 308.531 130.4V129.746H307.472V134.556ZM317.753 134.229V129.746H316.695V130.39C316.407 129.967 315.82 129.65 315.156 129.65C313.857 129.65 312.847 130.727 312.847 132.083C312.847 133.449 313.857 134.527 315.156 134.527C315.82 134.527 316.407 134.2 316.695 133.777V134.219C316.695 135.191 316.041 135.72 315.243 135.72C314.598 135.72 314.05 135.46 313.646 135.017L313.001 135.777C313.473 136.306 314.31 136.662 315.252 136.662C316.676 136.662 317.753 135.902 317.753 134.229ZM313.915 132.083C313.915 131.227 314.531 130.612 315.348 130.612C316.166 130.612 316.782 131.227 316.782 132.083C316.782 132.94 316.166 133.555 315.348 133.555C314.531 133.555 313.915 132.94 313.915 132.083ZM264.983 147.556H266.041V145.189C266.041 144.179 266.512 143.612 267.195 143.612C267.772 143.612 268.051 144.102 268.051 144.853V147.556H269.11V145.189C269.11 144.179 269.571 143.612 270.254 143.612C270.831 143.612 271.11 144.102 271.11 144.853V147.556H272.169V144.679C272.169 143.448 271.524 142.65 270.437 142.65C269.802 142.65 269.186 142.986 268.898 143.602C268.638 143.006 268.119 142.65 267.407 142.65C266.791 142.65 266.31 142.948 266.041 143.4V142.746H264.983V147.556ZM274.948 149.566L278.036 142.746H276.863L275.391 146.151L273.909 142.746H272.746L274.814 147.296L273.784 149.566H274.948ZM280.821 147.556H281.879V145.189C281.879 144.179 282.351 143.612 283.034 143.612C283.611 143.612 283.89 144.102 283.89 144.853V147.556H284.948V145.189C284.948 144.179 285.41 143.612 286.093 143.612C286.67 143.612 286.949 144.102 286.949 144.853V147.556H288.007V144.679C288.007 143.448 287.363 142.65 286.276 142.65C285.641 142.65 285.025 142.986 284.736 143.602C284.477 143.006 283.957 142.65 283.245 142.65C282.63 142.65 282.149 142.948 281.879 143.4V142.746H280.821V147.556ZM290.592 140.986C290.592 140.601 290.284 140.283 289.89 140.283C289.505 140.283 289.178 140.601 289.178 140.986C289.178 141.38 289.505 141.697 289.89 141.697C290.284 141.697 290.592 141.38 290.592 140.986ZM289.361 147.556H290.419V142.746H289.361V147.556ZM295.111 146.161C295.111 145.372 294.611 144.949 293.764 144.699L293.274 144.554C292.803 144.42 292.697 144.218 292.697 143.987C292.697 143.698 293.024 143.535 293.341 143.535C293.736 143.535 294.043 143.727 294.255 144.025L294.986 143.467C294.649 142.938 294.082 142.65 293.36 142.65C292.399 142.65 291.648 143.169 291.639 144.025C291.629 144.737 292.062 145.266 292.899 145.497L293.322 145.613C293.899 145.786 294.063 145.949 294.063 146.228C294.063 146.565 293.745 146.738 293.37 146.738C292.879 146.738 292.408 146.498 292.216 146.074L291.437 146.632C291.783 147.315 292.514 147.652 293.37 147.652C294.361 147.652 295.111 147.084 295.111 146.161ZM299.019 147.498V146.555C298.865 146.613 298.654 146.651 298.452 146.651C297.903 146.651 297.644 146.43 297.644 145.834V143.689H299.019V142.746H297.644V141.409H296.586V142.746H295.585V143.689H296.586V146.007C296.586 147.094 297.307 147.604 298.231 147.604C298.558 147.604 298.808 147.565 299.019 147.498ZM299.611 145.151C299.611 146.526 300.611 147.652 301.929 147.652C302.622 147.652 303.199 147.296 303.468 146.911V147.556H304.526V142.746H303.468V143.39C303.199 143.006 302.622 142.65 301.929 142.65C300.611 142.65 299.611 143.775 299.611 145.151ZM303.555 145.151C303.555 146.017 302.978 146.69 302.122 146.69C301.265 146.69 300.688 146.017 300.688 145.151C300.688 144.285 301.265 143.612 302.122 143.612C302.978 143.612 303.555 144.285 303.555 145.151ZM305.96 147.556H307.018V145.228L309.317 147.556H310.674L308.047 144.891L310.193 142.746H308.855L307.018 144.574V140.341H305.96V147.556ZM310.574 145.151C310.574 146.613 311.623 147.652 313.085 147.652C314.095 147.652 314.845 147.219 315.278 146.536L314.47 145.959C314.22 146.382 313.768 146.69 313.094 146.69C312.296 146.69 311.661 146.171 311.613 145.382H315.393C315.403 145.228 315.403 145.141 315.403 145.035C315.403 143.487 314.345 142.65 313.085 142.65C311.623 142.65 310.574 143.737 310.574 145.151ZM313.046 143.544C313.662 143.544 314.22 143.92 314.335 144.612H311.661C311.805 143.9 312.431 143.544 313.046 143.544ZM319.761 146.161C319.761 145.372 319.261 144.949 318.415 144.699L317.924 144.554C317.453 144.42 317.347 144.218 317.347 143.987C317.347 143.698 317.674 143.535 317.991 143.535C318.386 143.535 318.694 143.727 318.905 144.025L319.636 143.467C319.3 142.938 318.732 142.65 318.011 142.65C317.049 142.65 316.298 143.169 316.289 144.025C316.279 144.737 316.712 145.266 317.549 145.497L317.972 145.613C318.549 145.786 318.713 145.949 318.713 146.228C318.713 146.565 318.395 146.738 318.02 146.738C317.53 146.738 317.058 146.498 316.866 146.074L316.087 146.632C316.433 147.315 317.164 147.652 318.02 147.652C319.011 147.652 319.761 147.084 319.761 146.161Z" fill="#212121"/>
</g>
<g filter="url(#filter12_d_1_647)">
<path d="M251.053 294.183C251.053 266.061 228.256 243.264 200.134 243.264C172.012 243.264 149.215 266.061 149.215 294.183C149.215 322.305 172.012 345.102 200.134 345.102C228.256 345.102 251.053 322.305 251.053 294.183Z" fill="#DBE4FE"/>
<path d="M181.964 289.198H183.287V285.758H186.003V284.502H183.287V282.432H186.739V281.164H181.964V289.198ZM187.001 286.37C187.001 288.089 188.234 289.312 189.954 289.312C191.142 289.312 192.025 288.802 192.534 287.999L191.583 287.32C191.289 287.818 190.757 288.18 189.965 288.18C189.026 288.18 188.279 287.569 188.223 286.641H192.67C192.681 286.46 192.681 286.358 192.681 286.234C192.681 284.412 191.436 283.428 189.954 283.428C188.234 283.428 187.001 284.706 187.001 286.37ZM189.909 284.48C190.633 284.48 191.289 284.921 191.425 285.736H188.279C188.449 284.899 189.185 284.48 189.909 284.48ZM193.565 286.37C193.565 288.089 194.798 289.312 196.518 289.312C197.706 289.312 198.589 288.802 199.098 287.999L198.147 287.32C197.853 287.818 197.321 288.18 196.529 288.18C195.59 288.18 194.843 287.569 194.787 286.641H199.233C199.245 286.46 199.245 286.358 199.245 286.234C199.245 284.412 198 283.428 196.518 283.428C194.798 283.428 193.565 284.706 193.565 286.37ZM196.473 284.48C197.197 284.48 197.853 284.921 197.989 285.736H194.843C195.013 284.899 195.748 284.48 196.473 284.48ZM200.524 289.198H201.769V280.712H200.524V289.198ZM204.89 281.47C204.89 281.017 204.528 280.644 204.064 280.644C203.611 280.644 203.227 281.017 203.227 281.47C203.227 281.934 203.611 282.307 204.064 282.307C204.528 282.307 204.89 281.934 204.89 281.47ZM203.442 289.198H204.686V283.541H203.442V289.198ZM206.359 289.198H207.604V286.415C207.604 285.204 208.237 284.559 209.063 284.559C209.787 284.559 210.24 285.102 210.24 285.996V289.198H211.485V285.792C211.485 284.355 210.636 283.428 209.323 283.428C208.588 283.428 207.943 283.744 207.604 284.31V283.541H206.359V289.198ZM218.452 288.814V283.541H217.207V284.299C216.868 283.801 216.178 283.428 215.397 283.428C213.869 283.428 212.681 284.695 212.681 286.29C212.681 287.897 213.869 289.164 215.397 289.164C216.178 289.164 216.868 288.78 217.207 288.282V288.802C217.207 289.945 216.438 290.568 215.499 290.568C214.741 290.568 214.096 290.262 213.62 289.742L212.862 290.635C213.417 291.258 214.401 291.676 215.51 291.676C217.185 291.676 218.452 290.783 218.452 288.814ZM213.937 286.29C213.937 285.283 214.661 284.559 215.623 284.559C216.585 284.559 217.309 285.283 217.309 286.29C217.309 287.297 216.585 288.022 215.623 288.022C214.661 288.022 213.937 287.297 213.937 286.29ZM172.321 302.558C172.321 301.63 171.732 301.132 170.736 300.838L170.159 300.668C169.605 300.51 169.48 300.272 169.48 300C169.48 299.661 169.865 299.469 170.239 299.469C170.702 299.469 171.065 299.695 171.313 300.046L172.173 299.389C171.777 298.767 171.11 298.428 170.261 298.428C169.13 298.428 168.247 299.039 168.236 300.046C168.224 300.883 168.734 301.505 169.718 301.777L170.216 301.913C170.895 302.116 171.087 302.309 171.087 302.637C171.087 303.033 170.714 303.237 170.272 303.237C169.695 303.237 169.141 302.954 168.915 302.456L167.998 303.112C168.405 303.915 169.265 304.312 170.272 304.312C171.438 304.312 172.321 303.644 172.321 302.558ZM173.216 301.37C173.216 303.089 174.449 304.312 176.169 304.312C177.357 304.312 178.24 303.802 178.749 302.999L177.798 302.32C177.504 302.818 176.972 303.18 176.18 303.18C175.241 303.18 174.494 302.569 174.438 301.641H178.885C178.896 301.46 178.896 301.358 178.896 301.234C178.896 299.412 177.651 298.428 176.169 298.428C174.449 298.428 173.216 299.706 173.216 301.37ZM176.124 299.48C176.848 299.48 177.504 299.921 177.64 300.736H174.494C174.664 299.899 175.399 299.48 176.124 299.48ZM180.175 304.198H181.42V295.712H180.175V304.198ZM183.625 304.198H184.869V299.65H186.487V298.541H184.869V297.737C184.869 297.036 185.175 296.775 185.82 296.775C186.057 296.775 186.306 296.821 186.487 296.889V295.78C186.25 295.701 185.944 295.644 185.559 295.644C184.473 295.644 183.625 296.323 183.625 297.59V298.541H182.448V299.65H183.625V304.198ZM187.156 301.641H190.2V300.419H187.156V301.641ZM191.723 304.198H192.968V301.415C192.968 300.204 193.601 299.559 194.427 299.559C195.151 299.559 195.604 300.102 195.604 300.996V304.198H196.849V300.792C196.849 299.355 196 298.428 194.688 298.428C193.952 298.428 193.307 298.744 192.968 299.31V295.712H191.723V304.198ZM198.034 301.37C198.034 302.988 199.211 304.312 200.761 304.312C201.576 304.312 202.255 303.893 202.571 303.44V304.198H203.816V298.541H202.571V299.299C202.255 298.846 201.576 298.428 200.761 298.428C199.211 298.428 198.034 299.751 198.034 301.37ZM202.673 301.37C202.673 302.388 201.994 303.18 200.987 303.18C199.98 303.18 199.301 302.388 199.301 301.37C199.301 300.351 199.98 299.559 200.987 299.559C201.994 299.559 202.673 300.351 202.673 301.37ZM205.502 304.198H206.747V301.437C206.747 300.306 207.392 299.706 208.105 299.706C208.331 299.706 208.512 299.74 208.727 299.808V298.529C208.558 298.495 208.399 298.484 208.241 298.484C207.596 298.484 206.962 298.903 206.747 299.548V298.541H205.502V304.198ZM209.801 304.198H211.046V301.415C211.046 300.227 211.6 299.559 212.403 299.559C213.082 299.559 213.411 300.136 213.411 301.019V304.198H214.655V301.415C214.655 300.227 215.198 299.559 216.002 299.559C216.681 299.559 217.009 300.136 217.009 301.019V304.198H218.254V300.815C218.254 299.367 217.495 298.428 216.217 298.428C215.47 298.428 214.746 298.824 214.406 299.548C214.101 298.846 213.49 298.428 212.652 298.428C211.928 298.428 211.362 298.778 211.046 299.31V298.541H209.801V304.198ZM219.45 301.37C219.45 303.089 220.683 304.312 222.403 304.312C223.591 304.312 224.474 303.802 224.983 302.999L224.032 302.32C223.738 302.818 223.206 303.18 222.414 303.18C221.475 303.18 220.728 302.569 220.672 301.641H225.119C225.13 301.46 225.13 301.358 225.13 301.234C225.13 299.412 223.885 298.428 222.403 298.428C220.683 298.428 219.45 299.706 219.45 301.37ZM222.358 299.48C223.082 299.48 223.738 299.921 223.874 300.736H220.728C220.898 299.899 221.633 299.48 222.358 299.48ZM226.002 301.37C226.002 302.988 227.179 304.312 228.729 304.312C229.544 304.312 230.223 303.893 230.539 303.44V304.198H231.784V295.712H230.539V299.299C230.223 298.846 229.544 298.428 228.729 298.428C227.179 298.428 226.002 299.751 226.002 301.37ZM230.641 301.37C230.641 302.388 229.962 303.18 228.955 303.18C227.948 303.18 227.269 302.388 227.269 301.37C227.269 300.351 227.948 299.559 228.955 299.559C229.962 299.559 230.641 300.351 230.641 301.37Z" fill="#212121"/>
</g>
<g filter="url(#filter13_d_1_647)">
<path d="M156.224 349.85C156.224 325.943 136.843 306.562 112.936 306.562C89.0282 306.562 69.6475 325.943 69.6475 349.85V349.85C69.6475 373.758 89.0282 393.138 112.936 393.138C136.843 393.138 156.224 373.758 156.224 349.85V349.85Z" fill="#DBE4FE"/>
<path d="M97.4877 345.311H98.6132V342.386H100.922V341.319H98.6132V339.558H101.547V338.481H97.4877V345.311ZM101.77 342.906C101.77 344.368 102.819 345.407 104.281 345.407C105.291 345.407 106.041 344.974 106.474 344.291L105.666 343.714C105.416 344.137 104.964 344.445 104.29 344.445C103.492 344.445 102.857 343.926 102.809 343.137H106.589C106.599 342.983 106.599 342.896 106.599 342.79C106.599 341.242 105.541 340.405 104.281 340.405C102.819 340.405 101.77 341.492 101.77 342.906ZM104.242 341.299C104.858 341.299 105.416 341.675 105.531 342.367H102.857C103.001 341.655 103.627 341.299 104.242 341.299ZM107.35 342.906C107.35 344.368 108.399 345.407 109.861 345.407C110.871 345.407 111.621 344.974 112.054 344.291L111.246 343.714C110.996 344.137 110.544 344.445 109.871 344.445C109.072 344.445 108.437 343.926 108.389 343.137H112.17C112.179 342.983 112.179 342.896 112.179 342.79C112.179 341.242 111.121 340.405 109.861 340.405C108.399 340.405 107.35 341.492 107.35 342.906ZM109.822 341.299C110.438 341.299 110.996 341.675 111.111 342.367H108.437C108.581 341.655 109.207 341.299 109.822 341.299ZM113.267 345.311H114.325V338.096H113.267V345.311ZM116.978 338.741C116.978 338.356 116.671 338.038 116.276 338.038C115.891 338.038 115.564 338.356 115.564 338.741C115.564 339.135 115.891 339.452 116.276 339.452C116.671 339.452 116.978 339.135 116.978 338.741ZM115.747 345.311H116.805V340.501H115.747V345.311ZM118.227 345.311H119.285V342.944C119.285 341.915 119.824 341.367 120.526 341.367C121.142 341.367 121.527 341.828 121.527 342.588V345.311H122.585V342.415C122.585 341.194 121.863 340.405 120.747 340.405C120.122 340.405 119.574 340.674 119.285 341.155V340.501H118.227V345.311ZM128.508 344.984V340.501H127.45V341.146C127.161 340.722 126.575 340.405 125.911 340.405C124.612 340.405 123.602 341.482 123.602 342.839C123.602 344.205 124.612 345.282 125.911 345.282C126.575 345.282 127.161 344.955 127.45 344.532V344.974C127.45 345.946 126.796 346.475 125.997 346.475C125.353 346.475 124.805 346.215 124.4 345.773L123.756 346.532C124.227 347.062 125.064 347.417 126.007 347.417C127.431 347.417 128.508 346.658 128.508 344.984ZM124.67 342.839C124.67 341.982 125.285 341.367 126.103 341.367C126.921 341.367 127.536 341.982 127.536 342.839C127.536 343.695 126.921 344.31 126.103 344.31C125.285 344.31 124.67 343.695 124.67 342.839ZM89.2898 356.916C89.2898 356.127 88.7896 355.704 87.9431 355.454L87.4525 355.309C86.9811 355.175 86.8753 354.973 86.8753 354.742C86.8753 354.453 87.2024 354.29 87.5198 354.29C87.9142 354.29 88.2221 354.482 88.4337 354.78L89.1648 354.222C88.8281 353.693 88.2605 353.405 87.5391 353.405C86.5771 353.405 85.8268 353.924 85.8172 354.78C85.8075 355.492 86.2404 356.021 87.0773 356.252L87.5006 356.368C88.0778 356.541 88.2413 356.704 88.2413 356.983C88.2413 357.32 87.9239 357.493 87.5487 357.493C87.0581 357.493 86.5867 357.253 86.3943 356.829L85.6152 357.387C85.9615 358.07 86.6925 358.407 87.5487 358.407C88.5395 358.407 89.2898 357.839 89.2898 356.916ZM90.0508 355.906C90.0508 357.368 91.0993 358.407 92.5615 358.407C93.5715 358.407 94.3219 357.974 94.7548 357.291L93.9467 356.714C93.6966 357.137 93.2445 357.445 92.5711 357.445C91.7727 357.445 91.1378 356.926 91.0897 356.137H94.8702C94.8798 355.983 94.8798 355.896 94.8798 355.79C94.8798 354.242 93.8217 353.405 92.5615 353.405C91.0993 353.405 90.0508 354.492 90.0508 355.906ZM92.523 354.299C93.1387 354.299 93.6966 354.675 93.812 355.367H91.1378C91.2821 354.655 91.9074 354.299 92.523 354.299ZM95.9676 358.311H97.0257V351.096H95.9676V358.311ZM98.8998 358.311H99.9579V354.444H101.334V353.501H99.9579V352.818C99.9579 352.222 100.218 352 100.766 352C100.968 352 101.18 352.039 101.334 352.097V351.154C101.132 351.086 100.872 351.038 100.545 351.038C99.6212 351.038 98.8998 351.616 98.8998 352.693V353.501H97.8993V354.444H98.8998V358.311ZM101.902 356.137H104.49V355.098H101.902V356.137ZM105.785 358.311H106.843V355.944C106.843 354.915 107.381 354.367 108.084 354.367C108.699 354.367 109.084 354.828 109.084 355.588V358.311H110.142V355.415C110.142 354.194 109.421 353.405 108.305 353.405C107.68 353.405 107.131 353.674 106.843 354.155V351.096H105.785V358.311ZM111.15 355.906C111.15 357.281 112.15 358.407 113.468 358.407C114.161 358.407 114.738 358.051 115.007 357.666V358.311H116.066V353.501H115.007V354.146C114.738 353.761 114.161 353.405 113.468 353.405C112.15 353.405 111.15 354.53 111.15 355.906ZM115.094 355.906C115.094 356.772 114.517 357.445 113.661 357.445C112.804 357.445 112.227 356.772 112.227 355.906C112.227 355.04 112.804 354.367 113.661 354.367C114.517 354.367 115.094 355.04 115.094 355.906ZM117.499 358.311H118.557V355.964C118.557 355.002 119.106 354.492 119.712 354.492C119.904 354.492 120.058 354.521 120.241 354.578V353.491C120.096 353.463 119.962 353.453 119.827 353.453C119.279 353.453 118.74 353.809 118.557 354.357V353.501H117.499V358.311ZM121.153 358.311H122.212V355.944C122.212 354.934 122.683 354.367 123.366 354.367C123.943 354.367 124.222 354.857 124.222 355.608V358.311H125.28V355.944C125.28 354.934 125.742 354.367 126.425 354.367C127.002 354.367 127.281 354.857 127.281 355.608V358.311H128.339V355.435C128.339 354.203 127.695 353.405 126.608 353.405C125.973 353.405 125.357 353.741 125.069 354.357C124.809 353.761 124.289 353.405 123.578 353.405C122.962 353.405 122.481 353.703 122.212 354.155V353.501H121.153V358.311ZM129.356 355.906C129.356 357.368 130.405 358.407 131.867 358.407C132.877 358.407 133.627 357.974 134.06 357.291L133.252 356.714C133.002 357.137 132.55 357.445 131.876 357.445C131.078 357.445 130.443 356.926 130.395 356.137H134.175C134.185 355.983 134.185 355.896 134.185 355.79C134.185 354.242 133.127 353.405 131.867 353.405C130.405 353.405 129.356 354.492 129.356 355.906ZM131.828 354.299C132.444 354.299 133.002 354.675 133.117 355.367H130.443C130.587 354.655 131.213 354.299 131.828 354.299ZM134.926 355.906C134.926 357.281 135.927 358.407 137.245 358.407C137.937 358.407 138.515 358.051 138.784 357.666V358.311H139.842V351.096H138.784V354.146C138.515 353.761 137.937 353.405 137.245 353.405C135.927 353.405 134.926 354.53 134.926 355.906ZM138.871 355.906C138.871 356.772 138.293 357.445 137.437 357.445C136.581 357.445 136.004 356.772 136.004 355.906C136.004 355.04 136.581 354.367 137.437 354.367C138.293 354.367 138.871 355.04 138.871 355.906Z" fill="#212121"/>
</g>
</g>
<defs>
<filter id="filter0_f_1_647" x="97" y="0.0408936" width="287" height="541" filterUnits="userSpaceOnUse" color-interpolation-filters="sRGB">
<feFlood flood-opacity="0" result="BackgroundImageFix"/>
<feBlend mode="normal" in="SourceGraphic" in2="BackgroundImageFix" result="shape"/>
<feGaussianBlur stdDeviation="15" result="effect1_foregroundBlur_1_647"/>
</filter>
<filter id="filter1_f_1_647" x="97" y="0.0408936" width="287" height="305" filterUnits="userSpaceOnUse" color-interpolation-filters="sRGB">
<feFlood flood-opacity="0" result="BackgroundImageFix"/>
<feBlend mode="normal" in="SourceGraphic" in2="BackgroundImageFix" result="shape"/>
<feGaussianBlur stdDeviation="15" result="effect1_foregroundBlur_1_647"/>
</filter>
<filter id="filter2_d_1_647" x="97.2316" y="73.7556" width="155.817" height="172.368" filterUnits="userSpaceOnUse" color-interpolation-filters="sRGB">
<feFlood flood-opacity="0" result="BackgroundImageFix"/>
<feColorMatrix in="SourceAlpha" type="matrix" values="0 0 0 0 0 0 0 0 0 0 0 0 0 0 0 0 0 0 127 0" result="hardAlpha"/>
<feOffset/>
<feGaussianBlur stdDeviation="6.49323"/>
<feComposite in2="hardAlpha" operator="out"/>
<feColorMatrix type="matrix" values="0 0 0 0 0 0 0 0 0 0 0 0 0 0 0 0 0 0 0.12 0"/>
<feBlend mode="normal" in2="BackgroundImageFix" result="effect1_dropShadow_1_647"/>
<feBlend mode="normal" in="SourceGraphic" in2="effect1_dropShadow_1_647" result="shape"/>
</filter>
<filter id="filter3_d_1_647" x="120.951" y="187.766" width="66.3704" height="66.3704" filterUnits="userSpaceOnUse" color-interpolation-filters="sRGB">
<feFlood flood-opacity="0" result="BackgroundImageFix"/>
<feColorMatrix in="SourceAlpha" type="matrix" values="0 0 0 0 0 0 0 0 0 0 0 0 0 0 0 0 0 0 127 0" result="hardAlpha"/>
<feOffset dy="5"/>
<feGaussianBlur stdDeviation="8"/>
<feColorMatrix type="matrix" values="0 0 0 0 0.392157 0 0 0 0 0.258824 0 0 0 0 0.937255 0 0 0 0.3 0"/>
<feBlend mode="normal" in2="BackgroundImageFix" result="effect1_dropShadow_1_647"/>
<feBlend mode="normal" in="SourceGraphic" in2="effect1_dropShadow_1_647" result="shape"/>
</filter>
<filter id="filter4_dd_1_647" x="170.684" y="193.039" width="50.9191" height="50.9191" filterUnits="userSpaceOnUse" color-interpolation-filters="sRGB">
<feFlood flood-opacity="0" result="BackgroundImageFix"/>
<feColorMatrix in="SourceAlpha" type="matrix" values="0 0 0 0 0 0 0 0 0 0 0 0 0 0 0 0 0 0 127 0" result="hardAlpha"/>
<feOffset dy="2.54596"/>
<feGaussianBlur stdDeviation="4.13718"/>
<feColorMatrix type="matrix" values="0 0 0 0 0 0 0 0 0 0 0 0 0 0 0 0 0 0 0.08 0"/>
<feBlend mode="normal" in2="BackgroundImageFix" result="effect1_dropShadow_1_647"/>
<feColorMatrix in="SourceAlpha" type="matrix" values="0 0 0 0 0 0 0 0 0 0 0 0 0 0 0 0 0 0 127 0" result="hardAlpha"/>
<feOffset dy="1.07408"/>
<feGaussianBlur stdDeviation="1.07408"/>
<feComposite in2="hardAlpha" operator="out"/>
<feColorMatrix type="matrix" values="0 0 0 0 0 0 0 0 0 0 0 0 0 0 0 0 0 0 0.08 0"/>
<feBlend mode="normal" in2="effect1_dropShadow_1_647" result="effect2_dropShadow_1_647"/>
<feBlend mode="normal" in="SourceGraphic" in2="effect2_dropShadow_1_647" result="shape"/>
</filter>
<filter id="filter5_d_1_647" x="243.442" y="279.543" width="155.817" height="172.367" filterUnits="userSpaceOnUse" color-interpolation-filters="sRGB">
<feFlood flood-opacity="0" result="BackgroundImageFix"/>
<feColorMatrix in="SourceAlpha" type="matrix" values="0 0 0 0 0 0 0 0 0 0 0 0 0 0 0 0 0 0 127 0" result="hardAlpha"/>
<feOffset/>
<feGaussianBlur stdDeviation="6.49323"/>
<feComposite in2="hardAlpha" operator="out"/>
<feColorMatrix type="matrix" values="0 0 0 0 0 0 0 0 0 0 0 0 0 0 0 0 0 0 0.12 0"/>
<feBlend mode="normal" in2="BackgroundImageFix" result="effect1_dropShadow_1_647"/>
<feBlend mode="normal" in="SourceGraphic" in2="effect1_dropShadow_1_647" result="shape"/>
</filter>
<filter id="filter6_d_1_647" x="267.16" y="393.553" width="66.3704" height="66.3704" filterUnits="userSpaceOnUse" color-interpolation-filters="sRGB">
<feFlood flood-opacity="0" result="BackgroundImageFix"/>
<feColorMatrix in="SourceAlpha" type="matrix" values="0 0 0 0 0 0 0 0 0 0 0 0 0 0 0 0 0 0 127 0" result="hardAlpha"/>
<feOffset dy="5"/>
<feGaussianBlur stdDeviation="8"/>
<feColorMatrix type="matrix" values="0 0 0 0 0.392157 0 0 0 0 0.258824 0 0 0 0 0.937255 0 0 0 0.3 0"/>
<feBlend mode="normal" in2="BackgroundImageFix" result="effect1_dropShadow_1_647"/>
<feBlend mode="normal" in="SourceGraphic" in2="effect1_dropShadow_1_647" result="shape"/>
</filter>
<filter id="filter7_dd_1_647" x="316.893" y="398.825" width="50.9191" height="50.9191" filterUnits="userSpaceOnUse" color-interpolation-filters="sRGB">
<feFlood flood-opacity="0" result="BackgroundImageFix"/>
<feColorMatrix in="SourceAlpha" type="matrix" values="0 0 0 0 0 0 0 0 0 0 0 0 0 0 0 0 0 0 127 0" result="hardAlpha"/>
<feOffset dy="2.54596"/>
<feGaussianBlur stdDeviation="4.13718"/>
<feColorMatrix type="matrix" values="0 0 0 0 0 0 0 0 0 0 0 0 0 0 0 0 0 0 0.08 0"/>
<feBlend mode="normal" in2="BackgroundImageFix" result="effect1_dropShadow_1_647"/>
<feColorMatrix in="SourceAlpha" type="matrix" values="0 0 0 0 0 0 0 0 0 0 0 0 0 0 0 0 0 0 127 0" result="hardAlpha"/>
<feOffset dy="1.07408"/>
<feGaussianBlur stdDeviation="1.07408"/>
<feComposite in2="hardAlpha" operator="out"/>
<feColorMatrix type="matrix" values="0 0 0 0 0 0 0 0 0 0 0 0 0 0 0 0 0 0 0.08 0"/>
<feBlend mode="normal" in2="effect1_dropShadow_1_647" result="effect2_dropShadow_1_647"/>
<feBlend mode="normal" in="SourceGraphic" in2="effect2_dropShadow_1_647" result="shape"/>
</filter>
<filter id="filter8_d_1_647" x="138.883" y="336.4" width="130.697" height="130.697" filterUnits="userSpaceOnUse" color-interpolation-filters="sRGB">
<feFlood flood-opacity="0" result="BackgroundImageFix"/>
<feColorMatrix in="SourceAlpha" type="matrix" values="0 0 0 0 0 0 0 0 0 0 0 0 0 0 0 0 0 0 127 0" result="hardAlpha"/>
<feOffset/>
<feGaussianBlur stdDeviation="7.2147"/>
<feComposite in2="hardAlpha" operator="out"/>
<feColorMatrix type="matrix" values="0 0 0 0 0 0 0 0 0 0 0 0 0 0 0 0 0 0 0.06 0"/>
<feBlend mode="normal" in2="BackgroundImageFix" result="effect1_dropShadow_1_647"/>
<feBlend mode="normal" in="SourceGraphic" in2="effect1_dropShadow_1_647" result="shape"/>
</filter>
<filter id="filter9_d_1_647" x="229.594" y="172.135" width="130.697" height="130.697" filterUnits="userSpaceOnUse" color-interpolation-filters="sRGB">
<feFlood flood-opacity="0" result="BackgroundImageFix"/>
<feColorMatrix in="SourceAlpha" type="matrix" values="0 0 0 0 0 0 0 0 0 0 0 0 0 0 0 0 0 0 127 0" result="hardAlpha"/>
<feOffset/>
<feGaussianBlur stdDeviation="7.2147"/>
<feComposite in2="hardAlpha" operator="out"/>
<feColorMatrix type="matrix" values="0 0 0 0 0 0 0 0 0 0 0 0 0 0 0 0 0 0 0.06 0"/>
<feBlend mode="normal" in2="BackgroundImageFix" result="effect1_dropShadow_1_647"/>
<feBlend mode="normal" in="SourceGraphic" in2="effect1_dropShadow_1_647" result="shape"/>
</filter>
<filter id="filter10_d_1_647" x="319.976" y="126.416" width="115.435" height="115.435" filterUnits="userSpaceOnUse" color-interpolation-filters="sRGB">
<feFlood flood-opacity="0" result="BackgroundImageFix"/>
<feColorMatrix in="SourceAlpha" type="matrix" values="0 0 0 0 0 0 0 0 0 0 0 0 0 0 0 0 0 0 127 0" result="hardAlpha"/>
<feOffset/>
<feGaussianBlur stdDeviation="7.2147"/>
<feComposite in2="hardAlpha" operator="out"/>
<feColorMatrix type="matrix" values="0 0 0 0 0 0 0 0 0 0 0 0 0 0 0 0 0 0 0.06 0"/>
<feBlend mode="normal" in2="BackgroundImageFix" result="effect1_dropShadow_1_647"/>
<feBlend mode="normal" in="SourceGraphic" in2="effect1_dropShadow_1_647" result="shape"/>
</filter>
<filter id="filter11_d_1_647" x="234.492" y="81.3779" width="115.435" height="115.435" filterUnits="userSpaceOnUse" color-interpolation-filters="sRGB">
<feFlood flood-opacity="0" result="BackgroundImageFix"/>
<feColorMatrix in="SourceAlpha" type="matrix" values="0 0 0 0 0 0 0 0 0 0 0 0 0 0 0 0 0 0 127 0" result="hardAlpha"/>
<feOffset/>
<feGaussianBlur stdDeviation="7.2147"/>
<feComposite in2="hardAlpha" operator="out"/>
<feColorMatrix type="matrix" values="0 0 0 0 0 0 0 0 0 0 0 0 0 0 0 0 0 0 0.06 0"/>
<feBlend mode="normal" in2="BackgroundImageFix" result="effect1_dropShadow_1_647"/>
<feBlend mode="normal" in="SourceGraphic" in2="effect1_dropShadow_1_647" result="shape"/>
</filter>
<filter id="filter12_d_1_647" x="134.786" y="228.835" width="130.697" height="130.697" filterUnits="userSpaceOnUse" color-interpolation-filters="sRGB">
<feFlood flood-opacity="0" result="BackgroundImageFix"/>
<feColorMatrix in="SourceAlpha" type="matrix" values="0 0 0 0 0 0 0 0 0 0 0 0 0 0 0 0 0 0 127 0" result="hardAlpha"/>
<feOffset/>
<feGaussianBlur stdDeviation="7.2147"/>
<feComposite in2="hardAlpha" operator="out"/>
<feColorMatrix type="matrix" values="0 0 0 0 0 0 0 0 0 0 0 0 0 0 0 0 0 0 0.06 0"/>
<feBlend mode="normal" in2="BackgroundImageFix" result="effect1_dropShadow_1_647"/>
<feBlend mode="normal" in="SourceGraphic" in2="effect1_dropShadow_1_647" result="shape"/>
</filter>
<filter id="filter13_d_1_647" x="55.2181" y="292.133" width="115.435" height="115.435" filterUnits="userSpaceOnUse" color-interpolation-filters="sRGB">
<feFlood flood-opacity="0" result="BackgroundImageFix"/>
<feColorMatrix in="SourceAlpha" type="matrix" values="0 0 0 0 0 0 0 0 0 0 0 0 0 0 0 0 0 0 127 0" result="hardAlpha"/>
<feOffset/>
<feGaussianBlur stdDeviation="7.2147"/>
<feComposite in2="hardAlpha" operator="out"/>
<feColorMatrix type="matrix" values="0 0 0 0 0 0 0 0 0 0 0 0 0 0 0 0 0 0 0.06 0"/>
<feBlend mode="normal" in2="BackgroundImageFix" result="effect1_dropShadow_1_647"/>
<feBlend mode="normal" in="SourceGraphic" in2="effect1_dropShadow_1_647" result="shape"/>
</filter>
<clipPath id="clip0_1_647">
<rect width="480" height="511" fill="white"/>
</clipPath>
</defs>
</svg>
