<svg width="21" height="22" viewBox="0 0 21 22" fill="none" xmlns="http://www.w3.org/2000/svg">
<path d="M3.45001 7.04582C3.45001 6.60379 3.6256 6.17987 3.93817 5.86731C4.25073 5.55475 4.67465 5.37915 5.11668 5.37915H16.7833C17.2254 5.37915 17.6493 5.55475 17.9618 5.86731C18.2744 6.17987 18.45 6.60379 18.45 7.04582V15.3792C18.45 15.8212 18.2744 16.2451 17.9618 16.5577C17.6493 16.8703 17.2254 17.0459 16.7833 17.0459H5.11668C4.67465 17.0459 4.25073 16.8703 3.93817 16.5577C3.6256 16.2451 3.45001 15.8212 3.45001 15.3792V7.04582Z" stroke="#6442EF" stroke-width="1.66667" stroke-linecap="round" stroke-linejoin="round"/>
<path d="M3.45001 7.0459L10.95 12.0459L18.45 7.0459" stroke="#6442EF" stroke-width="1.66667" stroke-linecap="round" stroke-linejoin="round"/>
</svg>
