<svg width="36" height="36" viewBox="0 0 36 36" fill="none" xmlns="http://www.w3.org/2000/svg">
<path d="M17.995 0.687988C13.2422 0.687988 12.6446 0.70988 10.7772 0.793065C8.90989 0.880633 7.63797 1.17398 6.52367 1.60744C5.35485 2.04708 4.29615 2.73669 3.42159 3.62807C2.53075 4.50308 1.84123 5.56164 1.40097 6.73015C0.967506 7.84225 0.671966 9.11636 0.586587 10.9771C0.503398 12.8489 0.481506 13.4444 0.481506 18.2037C0.481506 22.9586 0.503398 23.5541 0.586587 25.4214C0.674155 27.2866 0.967506 28.5586 1.40097 29.6728C1.84975 30.8243 2.4474 31.8007 3.42159 32.7749C4.39359 33.7491 5.36997 34.3489 6.52148 34.7955C7.63797 35.229 8.9077 35.5246 10.7729 35.6099C12.6425 35.6931 13.238 35.715 17.995 35.715C22.7521 35.715 23.3454 35.6931 25.215 35.6099C27.078 35.5223 28.3543 35.229 29.4685 34.7955C30.6367 34.3557 31.6946 33.6661 32.5684 32.7749C33.5426 31.8007 34.1403 30.8243 34.5891 29.6728C35.0203 28.5586 35.3159 27.2866 35.4035 25.4214C35.4866 23.5541 35.5085 22.9586 35.5085 18.2015C35.5085 13.4444 35.4866 12.8489 35.4035 10.9794C35.3159 9.11636 35.0203 7.84225 34.5891 6.73015C34.1489 5.56162 33.4594 4.50303 32.5684 3.62807C31.6942 2.73636 30.6354 2.0467 29.4664 1.60744C28.3499 1.17398 27.0758 0.878444 25.2127 0.793065C23.3432 0.70988 22.7499 0.687988 17.9906 0.687988H17.9973H17.995ZM16.4253 3.8448H17.9973C22.6734 3.8448 23.2272 3.86012 25.0727 3.9455C26.7802 4.02212 27.7084 4.3089 28.3259 4.54752C29.1424 4.86496 29.7269 5.24588 30.3398 5.85885C30.9528 6.47182 31.3316 7.05415 31.649 7.8729C31.8899 8.48807 32.1744 9.41628 32.251 11.1239C32.3364 12.9693 32.354 13.5232 32.354 18.1971C32.354 22.871 32.3364 23.4271 32.251 25.2725C32.1744 26.9801 31.8876 27.9062 31.649 28.5235C31.3682 29.284 30.9201 29.9715 30.3377 30.5353C29.7247 31.1483 29.1424 31.5271 28.3236 31.8445C27.7106 32.0853 26.7824 32.3699 25.0727 32.4487C23.2272 32.5319 22.6734 32.5516 17.9973 32.5516C13.3211 32.5516 12.7651 32.5319 10.9196 32.4487C9.21199 32.3699 8.28597 32.0853 7.66861 31.8445C6.90787 31.5642 6.21964 31.1168 5.65456 30.5353C5.07169 29.9706 4.62285 29.2825 4.34105 28.5213C4.10243 27.9062 3.81564 26.978 3.73902 25.2704C3.65583 23.4249 3.63832 22.871 3.63832 18.1927C3.63832 13.5166 3.65583 12.9649 3.73902 11.1195C3.81783 9.4119 4.10243 8.48369 4.34324 7.86634C4.66067 7.04977 5.04159 6.46525 5.65456 5.85228C6.26753 5.23931 6.84986 4.86058 7.66861 4.54315C8.28597 4.30234 9.21199 4.01774 10.9196 3.93893C12.5352 3.8645 13.1613 3.84261 16.4253 3.84042V3.8448ZM27.345 6.75204C27.0691 6.75204 26.7958 6.8064 26.5408 6.91201C26.2858 7.01763 26.0542 7.17244 25.859 7.36759C25.6638 7.56275 25.509 7.79442 25.4034 8.04941C25.2978 8.30439 25.2434 8.57768 25.2434 8.85366C25.2434 9.12965 25.2978 9.40294 25.4034 9.65788C25.509 9.9129 25.6638 10.1446 25.859 10.3397C26.0542 10.5349 26.2858 10.6897 26.5408 10.7953C26.7958 10.901 27.0691 10.9552 27.345 10.9552C27.9024 10.9552 28.437 10.7339 28.8311 10.3397C29.2253 9.94559 29.4467 9.41105 29.4467 8.85366C29.4467 8.29628 29.2253 7.76172 28.8311 7.36759C28.437 6.97346 27.9024 6.75204 27.345 6.75204ZM17.9973 9.20831C16.8043 9.1897 15.6195 9.4086 14.512 9.85228C13.4044 10.2959 12.3962 10.9554 11.546 11.7925C10.6958 12.6295 10.0206 13.6273 9.55972 14.7278C9.09886 15.8283 8.86151 17.0095 8.86151 18.2026C8.86151 19.3957 9.09886 20.5769 9.55972 21.6774C10.0206 22.7778 10.6958 23.7756 11.546 24.6127C12.3962 25.4497 13.4044 26.1093 14.512 26.553C15.6195 26.9965 16.8043 27.2155 17.9973 27.1969C20.3584 27.16 22.6103 26.1962 24.267 24.5135C25.9237 22.8308 26.8523 20.564 26.8523 18.2026C26.8523 15.8412 25.9237 13.5745 24.267 11.8917C22.6103 10.209 20.3584 9.24515 17.9973 9.20831ZM17.9973 12.3629C19.5456 12.3629 21.0308 12.9781 22.1257 14.073C23.2207 15.1679 23.8358 16.653 23.8358 18.2015C23.8358 19.7499 23.2207 21.2351 22.1257 22.33C21.0308 23.425 19.5456 24.0401 17.9973 24.0401C16.4488 24.0401 14.9636 23.425 13.8687 22.33C12.7738 21.2351 12.1586 19.7499 12.1586 18.2015C12.1586 16.653 12.7738 15.1679 13.8687 14.073C14.9636 12.9781 16.4488 12.3629 17.9973 12.3629Z" fill="#4B27DC"/>
</svg>
